M48
; DRILL file {KiCad 7.0.2} date Thu Jun 15 10:28:15 2023
; FORMAT={-:-/ absolute / inch / decimal}
; #@! TF.CreationDate,2023-06-15T10:28:15+05:30
; #@! TF.GenerationSoftware,Kicad,Pcbnew,7.0.2
; #@! TF.FileFunction,Plated,1,4,PTH
FMAT,2
INCH
; #@! TA.AperFunction,Plated,PTH,ViaDrill
T1C0.0157
; #@! TA.AperFunction,Plated,PTH,ComponentDrill
T2C0.0197
; #@! TA.AperFunction,Plated,PTH,ComponentDrill
T3C0.0236
; #@! TA.AperFunction,Plated,PTH,ComponentDrill
T4C0.0472
; #@! TA.AperFunction,Plated,PTH,ComponentDrill
T5C0.1693
%
G90
G05
T1
X3.165Y-3.25
X3.165Y-3.435
X3.185Y-3.81
X3.19Y-3.955
X3.26Y-3.955
X3.27Y-3.91
X3.315Y-3.93
X3.32Y-3.575
X3.37Y-3.525
X3.38Y-3.715
X3.435Y-3.88
X3.435Y-4.095
X3.46Y-3.605
X3.465Y-3.725
X3.53Y-3.52
X3.57Y-3.52
X3.57Y-3.52
X3.61Y-3.225
X3.635Y-4.0
X3.6603Y-3.55
X3.685Y-4.165
X3.69Y-4.51
X3.805Y-3.225
X3.905Y-2.905
X3.9262Y-3.6615
X3.94Y-4.205
X3.96Y-3.5
X3.97Y-2.805
X3.98Y-3.655
X4.02Y-3.54
X4.025Y-2.805
X4.035Y-4.055
X4.06Y-4.095
X4.07Y-2.81
X4.07Y-4.26
X4.07Y-4.375
X4.085Y-3.505
X4.095Y-4.32
X4.135Y-4.375
X4.14Y-4.255
X4.17Y-2.815
X4.35Y-4.565
X4.35Y-4.675
X4.355Y-2.865
X4.36Y-3.06
X4.395Y-4.18
X4.41Y-4.565
X4.42Y-4.68
X4.425Y-3.3812
X4.4958Y-3.3772
X4.51Y-3.555
X4.51Y-4.43
X4.555Y-4.55
X4.57Y-4.685
X4.595Y-4.45
X4.61Y-3.37
X4.62Y-4.045
X4.635Y-3.855
X4.675Y-4.45
X4.74Y-3.36
X4.76Y-4.23
X4.83Y-4.335
T2
X3.61Y-3.0052
X3.6593Y-3.0052
X3.6873Y-4.5938
X3.7085Y-3.0052
X3.7365Y-4.5938
X3.7577Y-3.0052
X3.7857Y-4.5938
X3.8349Y-4.5938
T3
X3.0833Y-2.9627
X3.0998Y-4.6975
X3.1204Y-2.8729
X3.1204Y-3.0524
X3.137Y-4.6077
X3.137Y-4.7873
X3.2102Y-2.8357
X3.2102Y-3.0896
X3.2268Y-4.5705
X3.2268Y-4.8245
X3.3Y-2.8729
X3.3Y-3.0524
X3.3166Y-4.6077
X3.3166Y-4.7873
X3.3372Y-2.9627
X3.3538Y-4.6975
X4.6896Y-2.9371
X4.721Y-4.689
X4.7267Y-2.8473
X4.7267Y-3.0269
X4.7582Y-4.5993
X4.7582Y-4.7788
X4.8165Y-2.8101
X4.8165Y-3.064
X4.848Y-4.5621
X4.848Y-4.816
X4.9063Y-2.8473
X4.9063Y-3.0269
X4.9378Y-4.5993
X4.9378Y-4.7788
X4.9435Y-2.9371
X4.975Y-4.689
T4
X4.8236Y-3.9481
X4.8236Y-4.0859
T5
X3.2102Y-2.9627
X3.2268Y-4.6975
X4.8165Y-2.9371
X4.848Y-4.689
T0
M30
