%TF.GenerationSoftware,KiCad,Pcbnew,7.0.2*%
%TF.CreationDate,2023-06-15T10:28:23+05:30*%
%TF.ProjectId,stm32,73746d33-322e-46b6-9963-61645f706362,rev?*%
%TF.SameCoordinates,Original*%
%TF.FileFunction,Legend,Top*%
%TF.FilePolarity,Positive*%
%FSLAX46Y46*%
G04 Gerber Fmt 4.6, Leading zero omitted, Abs format (unit mm)*
G04 Created by KiCad (PCBNEW 7.0.2) date 2023-06-15 10:28:23*
%MOMM*%
%LPD*%
G01*
G04 APERTURE LIST*
%ADD10C,0.300000*%
%ADD11C,0.150000*%
%ADD12C,0.120000*%
%ADD13C,0.127000*%
G04 APERTURE END LIST*
D10*
X92432142Y-79064428D02*
X92432142Y-78064428D01*
X92432142Y-77564428D02*
X92360714Y-77635857D01*
X92360714Y-77635857D02*
X92432142Y-77707285D01*
X92432142Y-77707285D02*
X92503571Y-77635857D01*
X92503571Y-77635857D02*
X92432142Y-77564428D01*
X92432142Y-77564428D02*
X92432142Y-77707285D01*
X93075000Y-77707285D02*
X93146428Y-77635857D01*
X93146428Y-77635857D02*
X93289286Y-77564428D01*
X93289286Y-77564428D02*
X93646428Y-77564428D01*
X93646428Y-77564428D02*
X93789286Y-77635857D01*
X93789286Y-77635857D02*
X93860714Y-77707285D01*
X93860714Y-77707285D02*
X93932143Y-77850142D01*
X93932143Y-77850142D02*
X93932143Y-77993000D01*
X93932143Y-77993000D02*
X93860714Y-78207285D01*
X93860714Y-78207285D02*
X93003571Y-79064428D01*
X93003571Y-79064428D02*
X93932143Y-79064428D01*
X95217857Y-78993000D02*
X95074999Y-79064428D01*
X95074999Y-79064428D02*
X94789285Y-79064428D01*
X94789285Y-79064428D02*
X94646428Y-78993000D01*
X94646428Y-78993000D02*
X94574999Y-78921571D01*
X94574999Y-78921571D02*
X94503571Y-78778714D01*
X94503571Y-78778714D02*
X94503571Y-78350142D01*
X94503571Y-78350142D02*
X94574999Y-78207285D01*
X94574999Y-78207285D02*
X94646428Y-78135857D01*
X94646428Y-78135857D02*
X94789285Y-78064428D01*
X94789285Y-78064428D02*
X95074999Y-78064428D01*
X95074999Y-78064428D02*
X95217857Y-78135857D01*
X121877142Y-96298428D02*
X121877142Y-97798428D01*
X121877142Y-96369857D02*
X122020000Y-96298428D01*
X122020000Y-96298428D02*
X122305714Y-96298428D01*
X122305714Y-96298428D02*
X122448571Y-96369857D01*
X122448571Y-96369857D02*
X122520000Y-96441285D01*
X122520000Y-96441285D02*
X122591428Y-96584142D01*
X122591428Y-96584142D02*
X122591428Y-97012714D01*
X122591428Y-97012714D02*
X122520000Y-97155571D01*
X122520000Y-97155571D02*
X122448571Y-97227000D01*
X122448571Y-97227000D02*
X122305714Y-97298428D01*
X122305714Y-97298428D02*
X122020000Y-97298428D01*
X122020000Y-97298428D02*
X121877142Y-97227000D01*
X123448571Y-97298428D02*
X123305714Y-97227000D01*
X123305714Y-97227000D02*
X123234285Y-97155571D01*
X123234285Y-97155571D02*
X123162857Y-97012714D01*
X123162857Y-97012714D02*
X123162857Y-96584142D01*
X123162857Y-96584142D02*
X123234285Y-96441285D01*
X123234285Y-96441285D02*
X123305714Y-96369857D01*
X123305714Y-96369857D02*
X123448571Y-96298428D01*
X123448571Y-96298428D02*
X123662857Y-96298428D01*
X123662857Y-96298428D02*
X123805714Y-96369857D01*
X123805714Y-96369857D02*
X123877143Y-96441285D01*
X123877143Y-96441285D02*
X123948571Y-96584142D01*
X123948571Y-96584142D02*
X123948571Y-97012714D01*
X123948571Y-97012714D02*
X123877143Y-97155571D01*
X123877143Y-97155571D02*
X123805714Y-97227000D01*
X123805714Y-97227000D02*
X123662857Y-97298428D01*
X123662857Y-97298428D02*
X123448571Y-97298428D01*
X124448571Y-96298428D02*
X124734286Y-97298428D01*
X124734286Y-97298428D02*
X125020000Y-96584142D01*
X125020000Y-96584142D02*
X125305714Y-97298428D01*
X125305714Y-97298428D02*
X125591428Y-96298428D01*
X126734286Y-97227000D02*
X126591429Y-97298428D01*
X126591429Y-97298428D02*
X126305715Y-97298428D01*
X126305715Y-97298428D02*
X126162857Y-97227000D01*
X126162857Y-97227000D02*
X126091429Y-97084142D01*
X126091429Y-97084142D02*
X126091429Y-96512714D01*
X126091429Y-96512714D02*
X126162857Y-96369857D01*
X126162857Y-96369857D02*
X126305715Y-96298428D01*
X126305715Y-96298428D02*
X126591429Y-96298428D01*
X126591429Y-96298428D02*
X126734286Y-96369857D01*
X126734286Y-96369857D02*
X126805715Y-96512714D01*
X126805715Y-96512714D02*
X126805715Y-96655571D01*
X126805715Y-96655571D02*
X126091429Y-96798428D01*
X127448571Y-97298428D02*
X127448571Y-96298428D01*
X127448571Y-96584142D02*
X127520000Y-96441285D01*
X127520000Y-96441285D02*
X127591429Y-96369857D01*
X127591429Y-96369857D02*
X127734286Y-96298428D01*
X127734286Y-96298428D02*
X127877143Y-96298428D01*
X124317000Y-91399428D02*
X124317000Y-92399428D01*
X123674142Y-91399428D02*
X123674142Y-92185142D01*
X123674142Y-92185142D02*
X123745571Y-92328000D01*
X123745571Y-92328000D02*
X123888428Y-92399428D01*
X123888428Y-92399428D02*
X124102714Y-92399428D01*
X124102714Y-92399428D02*
X124245571Y-92328000D01*
X124245571Y-92328000D02*
X124317000Y-92256571D01*
X124959857Y-92328000D02*
X125102714Y-92399428D01*
X125102714Y-92399428D02*
X125388428Y-92399428D01*
X125388428Y-92399428D02*
X125531285Y-92328000D01*
X125531285Y-92328000D02*
X125602714Y-92185142D01*
X125602714Y-92185142D02*
X125602714Y-92113714D01*
X125602714Y-92113714D02*
X125531285Y-91970857D01*
X125531285Y-91970857D02*
X125388428Y-91899428D01*
X125388428Y-91899428D02*
X125174143Y-91899428D01*
X125174143Y-91899428D02*
X125031285Y-91828000D01*
X125031285Y-91828000D02*
X124959857Y-91685142D01*
X124959857Y-91685142D02*
X124959857Y-91613714D01*
X124959857Y-91613714D02*
X125031285Y-91470857D01*
X125031285Y-91470857D02*
X125174143Y-91399428D01*
X125174143Y-91399428D02*
X125388428Y-91399428D01*
X125388428Y-91399428D02*
X125531285Y-91470857D01*
X126245571Y-92399428D02*
X126245571Y-90899428D01*
X126245571Y-91470857D02*
X126388429Y-91399428D01*
X126388429Y-91399428D02*
X126674143Y-91399428D01*
X126674143Y-91399428D02*
X126817000Y-91470857D01*
X126817000Y-91470857D02*
X126888429Y-91542285D01*
X126888429Y-91542285D02*
X126959857Y-91685142D01*
X126959857Y-91685142D02*
X126959857Y-92113714D01*
X126959857Y-92113714D02*
X126888429Y-92256571D01*
X126888429Y-92256571D02*
X126817000Y-92328000D01*
X126817000Y-92328000D02*
X126674143Y-92399428D01*
X126674143Y-92399428D02*
X126388429Y-92399428D01*
X126388429Y-92399428D02*
X126245571Y-92328000D01*
X77827142Y-91198428D02*
X77827142Y-89698428D01*
X77827142Y-90269857D02*
X77970000Y-90198428D01*
X77970000Y-90198428D02*
X78255714Y-90198428D01*
X78255714Y-90198428D02*
X78398571Y-90269857D01*
X78398571Y-90269857D02*
X78470000Y-90341285D01*
X78470000Y-90341285D02*
X78541428Y-90484142D01*
X78541428Y-90484142D02*
X78541428Y-90912714D01*
X78541428Y-90912714D02*
X78470000Y-91055571D01*
X78470000Y-91055571D02*
X78398571Y-91127000D01*
X78398571Y-91127000D02*
X78255714Y-91198428D01*
X78255714Y-91198428D02*
X77970000Y-91198428D01*
X77970000Y-91198428D02*
X77827142Y-91127000D01*
X79398571Y-91198428D02*
X79255714Y-91127000D01*
X79255714Y-91127000D02*
X79184285Y-91055571D01*
X79184285Y-91055571D02*
X79112857Y-90912714D01*
X79112857Y-90912714D02*
X79112857Y-90484142D01*
X79112857Y-90484142D02*
X79184285Y-90341285D01*
X79184285Y-90341285D02*
X79255714Y-90269857D01*
X79255714Y-90269857D02*
X79398571Y-90198428D01*
X79398571Y-90198428D02*
X79612857Y-90198428D01*
X79612857Y-90198428D02*
X79755714Y-90269857D01*
X79755714Y-90269857D02*
X79827143Y-90341285D01*
X79827143Y-90341285D02*
X79898571Y-90484142D01*
X79898571Y-90484142D02*
X79898571Y-90912714D01*
X79898571Y-90912714D02*
X79827143Y-91055571D01*
X79827143Y-91055571D02*
X79755714Y-91127000D01*
X79755714Y-91127000D02*
X79612857Y-91198428D01*
X79612857Y-91198428D02*
X79398571Y-91198428D01*
X80755714Y-91198428D02*
X80612857Y-91127000D01*
X80612857Y-91127000D02*
X80541428Y-91055571D01*
X80541428Y-91055571D02*
X80470000Y-90912714D01*
X80470000Y-90912714D02*
X80470000Y-90484142D01*
X80470000Y-90484142D02*
X80541428Y-90341285D01*
X80541428Y-90341285D02*
X80612857Y-90269857D01*
X80612857Y-90269857D02*
X80755714Y-90198428D01*
X80755714Y-90198428D02*
X80970000Y-90198428D01*
X80970000Y-90198428D02*
X81112857Y-90269857D01*
X81112857Y-90269857D02*
X81184286Y-90341285D01*
X81184286Y-90341285D02*
X81255714Y-90484142D01*
X81255714Y-90484142D02*
X81255714Y-90912714D01*
X81255714Y-90912714D02*
X81184286Y-91055571D01*
X81184286Y-91055571D02*
X81112857Y-91127000D01*
X81112857Y-91127000D02*
X80970000Y-91198428D01*
X80970000Y-91198428D02*
X80755714Y-91198428D01*
X81684286Y-90198428D02*
X82255714Y-90198428D01*
X81898571Y-89698428D02*
X81898571Y-90984142D01*
X81898571Y-90984142D02*
X81970000Y-91127000D01*
X81970000Y-91127000D02*
X82112857Y-91198428D01*
X82112857Y-91198428D02*
X82255714Y-91198428D01*
X97266000Y-113370428D02*
X97266000Y-114370428D01*
X96623142Y-113370428D02*
X96623142Y-114156142D01*
X96623142Y-114156142D02*
X96694571Y-114299000D01*
X96694571Y-114299000D02*
X96837428Y-114370428D01*
X96837428Y-114370428D02*
X97051714Y-114370428D01*
X97051714Y-114370428D02*
X97194571Y-114299000D01*
X97194571Y-114299000D02*
X97266000Y-114227571D01*
X98623143Y-114370428D02*
X98623143Y-113584714D01*
X98623143Y-113584714D02*
X98551714Y-113441857D01*
X98551714Y-113441857D02*
X98408857Y-113370428D01*
X98408857Y-113370428D02*
X98123143Y-113370428D01*
X98123143Y-113370428D02*
X97980285Y-113441857D01*
X98623143Y-114299000D02*
X98480285Y-114370428D01*
X98480285Y-114370428D02*
X98123143Y-114370428D01*
X98123143Y-114370428D02*
X97980285Y-114299000D01*
X97980285Y-114299000D02*
X97908857Y-114156142D01*
X97908857Y-114156142D02*
X97908857Y-114013285D01*
X97908857Y-114013285D02*
X97980285Y-113870428D01*
X97980285Y-113870428D02*
X98123143Y-113799000D01*
X98123143Y-113799000D02*
X98480285Y-113799000D01*
X98480285Y-113799000D02*
X98623143Y-113727571D01*
X99337428Y-114370428D02*
X99337428Y-113370428D01*
X99337428Y-113656142D02*
X99408857Y-113513285D01*
X99408857Y-113513285D02*
X99480286Y-113441857D01*
X99480286Y-113441857D02*
X99623143Y-113370428D01*
X99623143Y-113370428D02*
X99766000Y-113370428D01*
X100051714Y-113370428D02*
X100623142Y-113370428D01*
X100265999Y-112870428D02*
X100265999Y-114156142D01*
X100265999Y-114156142D02*
X100337428Y-114299000D01*
X100337428Y-114299000D02*
X100480285Y-114370428D01*
X100480285Y-114370428D02*
X100623142Y-114370428D01*
D11*
%TO.C,SW1*%
X81365000Y-89165332D02*
X81412619Y-89022475D01*
X81412619Y-89022475D02*
X81412619Y-88784380D01*
X81412619Y-88784380D02*
X81365000Y-88689142D01*
X81365000Y-88689142D02*
X81317380Y-88641523D01*
X81317380Y-88641523D02*
X81222142Y-88593904D01*
X81222142Y-88593904D02*
X81126904Y-88593904D01*
X81126904Y-88593904D02*
X81031666Y-88641523D01*
X81031666Y-88641523D02*
X80984047Y-88689142D01*
X80984047Y-88689142D02*
X80936428Y-88784380D01*
X80936428Y-88784380D02*
X80888809Y-88974856D01*
X80888809Y-88974856D02*
X80841190Y-89070094D01*
X80841190Y-89070094D02*
X80793571Y-89117713D01*
X80793571Y-89117713D02*
X80698333Y-89165332D01*
X80698333Y-89165332D02*
X80603095Y-89165332D01*
X80603095Y-89165332D02*
X80507857Y-89117713D01*
X80507857Y-89117713D02*
X80460238Y-89070094D01*
X80460238Y-89070094D02*
X80412619Y-88974856D01*
X80412619Y-88974856D02*
X80412619Y-88736761D01*
X80412619Y-88736761D02*
X80460238Y-88593904D01*
X80412619Y-88260570D02*
X81412619Y-88022475D01*
X81412619Y-88022475D02*
X80698333Y-87831999D01*
X80698333Y-87831999D02*
X81412619Y-87641523D01*
X81412619Y-87641523D02*
X80412619Y-87403428D01*
X81412619Y-86498666D02*
X81412619Y-87070094D01*
X81412619Y-86784380D02*
X80412619Y-86784380D01*
X80412619Y-86784380D02*
X80555476Y-86879618D01*
X80555476Y-86879618D02*
X80650714Y-86974856D01*
X80650714Y-86974856D02*
X80698333Y-87070094D01*
%TO.C,H1*%
X117377676Y-74064200D02*
X117377676Y-73064200D01*
X117377676Y-73540390D02*
X117949104Y-73540390D01*
X117949104Y-74064200D02*
X117949104Y-73064200D01*
X118949104Y-74064200D02*
X118377676Y-74064200D01*
X118663390Y-74064200D02*
X118663390Y-73064200D01*
X118663390Y-73064200D02*
X118568152Y-73207057D01*
X118568152Y-73207057D02*
X118472914Y-73302295D01*
X118472914Y-73302295D02*
X118377676Y-73349914D01*
%TO.C,H3*%
X81198695Y-114479419D02*
X81198695Y-113479419D01*
X81198695Y-113955609D02*
X81770123Y-113955609D01*
X81770123Y-114479419D02*
X81770123Y-113479419D01*
X82151076Y-113479419D02*
X82770123Y-113479419D01*
X82770123Y-113479419D02*
X82436790Y-113860371D01*
X82436790Y-113860371D02*
X82579647Y-113860371D01*
X82579647Y-113860371D02*
X82674885Y-113907990D01*
X82674885Y-113907990D02*
X82722504Y-113955609D01*
X82722504Y-113955609D02*
X82770123Y-114050847D01*
X82770123Y-114050847D02*
X82770123Y-114288942D01*
X82770123Y-114288942D02*
X82722504Y-114384180D01*
X82722504Y-114384180D02*
X82674885Y-114431800D01*
X82674885Y-114431800D02*
X82579647Y-114479419D01*
X82579647Y-114479419D02*
X82293933Y-114479419D01*
X82293933Y-114479419D02*
X82198695Y-114431800D01*
X82198695Y-114431800D02*
X82151076Y-114384180D01*
%TO.C,J1*%
X102655857Y-80171000D02*
X102798714Y-80218619D01*
X102798714Y-80218619D02*
X103036809Y-80218619D01*
X103036809Y-80218619D02*
X103132047Y-80171000D01*
X103132047Y-80171000D02*
X103179666Y-80123380D01*
X103179666Y-80123380D02*
X103227285Y-80028142D01*
X103227285Y-80028142D02*
X103227285Y-79932904D01*
X103227285Y-79932904D02*
X103179666Y-79837666D01*
X103179666Y-79837666D02*
X103132047Y-79790047D01*
X103132047Y-79790047D02*
X103036809Y-79742428D01*
X103036809Y-79742428D02*
X102846333Y-79694809D01*
X102846333Y-79694809D02*
X102751095Y-79647190D01*
X102751095Y-79647190D02*
X102703476Y-79599571D01*
X102703476Y-79599571D02*
X102655857Y-79504333D01*
X102655857Y-79504333D02*
X102655857Y-79409095D01*
X102655857Y-79409095D02*
X102703476Y-79313857D01*
X102703476Y-79313857D02*
X102751095Y-79266238D01*
X102751095Y-79266238D02*
X102846333Y-79218619D01*
X102846333Y-79218619D02*
X103084428Y-79218619D01*
X103084428Y-79218619D02*
X103227285Y-79266238D01*
X103560619Y-79218619D02*
X103798714Y-80218619D01*
X103798714Y-80218619D02*
X103989190Y-79504333D01*
X103989190Y-79504333D02*
X104179666Y-80218619D01*
X104179666Y-80218619D02*
X104417762Y-79218619D01*
X104798714Y-80218619D02*
X104798714Y-79218619D01*
X104798714Y-79218619D02*
X105036809Y-79218619D01*
X105036809Y-79218619D02*
X105179666Y-79266238D01*
X105179666Y-79266238D02*
X105274904Y-79361476D01*
X105274904Y-79361476D02*
X105322523Y-79456714D01*
X105322523Y-79456714D02*
X105370142Y-79647190D01*
X105370142Y-79647190D02*
X105370142Y-79790047D01*
X105370142Y-79790047D02*
X105322523Y-79980523D01*
X105322523Y-79980523D02*
X105274904Y-80075761D01*
X105274904Y-80075761D02*
X105179666Y-80171000D01*
X105179666Y-80171000D02*
X105036809Y-80218619D01*
X105036809Y-80218619D02*
X104798714Y-80218619D01*
%TO.C,U1*%
X94708095Y-89519619D02*
X94708095Y-90329142D01*
X94708095Y-90329142D02*
X94755714Y-90424380D01*
X94755714Y-90424380D02*
X94803333Y-90472000D01*
X94803333Y-90472000D02*
X94898571Y-90519619D01*
X94898571Y-90519619D02*
X95089047Y-90519619D01*
X95089047Y-90519619D02*
X95184285Y-90472000D01*
X95184285Y-90472000D02*
X95231904Y-90424380D01*
X95231904Y-90424380D02*
X95279523Y-90329142D01*
X95279523Y-90329142D02*
X95279523Y-89519619D01*
X96279523Y-90519619D02*
X95708095Y-90519619D01*
X95993809Y-90519619D02*
X95993809Y-89519619D01*
X95993809Y-89519619D02*
X95898571Y-89662476D01*
X95898571Y-89662476D02*
X95803333Y-89757714D01*
X95803333Y-89757714D02*
X95708095Y-89805333D01*
%TO.C,D3*%
X117381905Y-94944619D02*
X117381905Y-93944619D01*
X117381905Y-93944619D02*
X117620000Y-93944619D01*
X117620000Y-93944619D02*
X117762857Y-93992238D01*
X117762857Y-93992238D02*
X117858095Y-94087476D01*
X117858095Y-94087476D02*
X117905714Y-94182714D01*
X117905714Y-94182714D02*
X117953333Y-94373190D01*
X117953333Y-94373190D02*
X117953333Y-94516047D01*
X117953333Y-94516047D02*
X117905714Y-94706523D01*
X117905714Y-94706523D02*
X117858095Y-94801761D01*
X117858095Y-94801761D02*
X117762857Y-94897000D01*
X117762857Y-94897000D02*
X117620000Y-94944619D01*
X117620000Y-94944619D02*
X117381905Y-94944619D01*
X118286667Y-93944619D02*
X118905714Y-93944619D01*
X118905714Y-93944619D02*
X118572381Y-94325571D01*
X118572381Y-94325571D02*
X118715238Y-94325571D01*
X118715238Y-94325571D02*
X118810476Y-94373190D01*
X118810476Y-94373190D02*
X118858095Y-94420809D01*
X118858095Y-94420809D02*
X118905714Y-94516047D01*
X118905714Y-94516047D02*
X118905714Y-94754142D01*
X118905714Y-94754142D02*
X118858095Y-94849380D01*
X118858095Y-94849380D02*
X118810476Y-94897000D01*
X118810476Y-94897000D02*
X118715238Y-94944619D01*
X118715238Y-94944619D02*
X118429524Y-94944619D01*
X118429524Y-94944619D02*
X118334286Y-94897000D01*
X118334286Y-94897000D02*
X118286667Y-94849380D01*
%TO.C,H2*%
X122377676Y-119464200D02*
X122377676Y-118464200D01*
X122377676Y-118940390D02*
X122949104Y-118940390D01*
X122949104Y-119464200D02*
X122949104Y-118464200D01*
X123377676Y-118559438D02*
X123425295Y-118511819D01*
X123425295Y-118511819D02*
X123520533Y-118464200D01*
X123520533Y-118464200D02*
X123758628Y-118464200D01*
X123758628Y-118464200D02*
X123853866Y-118511819D01*
X123853866Y-118511819D02*
X123901485Y-118559438D01*
X123901485Y-118559438D02*
X123949104Y-118654676D01*
X123949104Y-118654676D02*
X123949104Y-118749914D01*
X123949104Y-118749914D02*
X123901485Y-118892771D01*
X123901485Y-118892771D02*
X123330057Y-119464200D01*
X123330057Y-119464200D02*
X123949104Y-119464200D01*
D12*
%TO.C,J3*%
X92047500Y-115522000D02*
X92047500Y-121242000D01*
X92047500Y-121242000D02*
X95532500Y-121242000D01*
X93117500Y-115522000D02*
X92047500Y-115522000D01*
X93117500Y-115822000D02*
X93117500Y-115522000D01*
X93407500Y-115232000D02*
X92907500Y-115232000D01*
X93407500Y-115532000D02*
X93407500Y-115232000D01*
X95532500Y-115822000D02*
X93117500Y-115822000D01*
X95532500Y-115822000D02*
X97947500Y-115822000D01*
X97947500Y-115522000D02*
X99017500Y-115522000D01*
X97947500Y-115822000D02*
X97947500Y-115522000D01*
X99017500Y-115522000D02*
X99017500Y-121242000D01*
X99017500Y-121242000D02*
X95532500Y-121242000D01*
%TO.C,C5*%
X92327836Y-105992000D02*
X92112164Y-105992000D01*
X92327836Y-105272000D02*
X92112164Y-105272000D01*
%TO.C,C16*%
X111280000Y-109974164D02*
X111280000Y-110189836D01*
X110560000Y-109974164D02*
X110560000Y-110189836D01*
%TO.C,R1*%
X86566359Y-96202000D02*
X86873641Y-96202000D01*
X86566359Y-96962000D02*
X86873641Y-96962000D01*
%TO.C,R6*%
X118272500Y-111979742D02*
X118272500Y-112454258D01*
X117227500Y-111979742D02*
X117227500Y-112454258D01*
%TO.C,SW1*%
X77590000Y-81382000D02*
X76800000Y-81382000D01*
X75790000Y-81982000D02*
X75790000Y-87682000D01*
X78640000Y-83232000D02*
X78640000Y-84932000D01*
X75790000Y-83432000D02*
X74500000Y-83432000D01*
X74500000Y-83432000D02*
X74290000Y-83632000D01*
X74290000Y-83632000D02*
X74290000Y-84532000D01*
X74500000Y-84732000D02*
X74290000Y-84532000D01*
X74500000Y-84732000D02*
X75790000Y-84732000D01*
X78640000Y-86232000D02*
X78640000Y-86432000D01*
X76800000Y-88282000D02*
X77590000Y-88282000D01*
%TO.C,J2*%
X126680000Y-105832000D02*
X127320000Y-105832000D01*
X127320000Y-105832000D02*
X127320000Y-105432000D01*
X119360000Y-105592000D02*
X127080000Y-105592000D01*
X119360000Y-105592000D02*
X119360000Y-98472000D01*
X125520000Y-105592000D02*
X125520000Y-98472000D01*
X126620000Y-105592000D02*
X126620000Y-98472000D01*
X127080000Y-105592000D02*
X127080000Y-98472000D01*
X123461000Y-101427000D02*
X123589000Y-101556000D01*
X123701000Y-101257000D02*
X123794000Y-101351000D01*
X121245000Y-99212000D02*
X121339000Y-99306000D01*
X121451000Y-99007000D02*
X121579000Y-99136000D01*
X119360000Y-98472000D02*
X127080000Y-98472000D01*
X121654000Y-105222000D02*
G75*
G03*
X123409894Y-105207358I866000J1439998D01*
G01*
X121080000Y-102916000D02*
G75*
G03*
X121094642Y-104671894I1439998J-866000D01*
G01*
X123960000Y-104648000D02*
G75*
G03*
X124200098Y-103753326I-1440014J866003D01*
G01*
X124199999Y-103782000D02*
G75*
G03*
X123944720Y-102891736I-1679989J3D01*
G01*
X123410999Y-102357001D02*
G75*
G03*
X121629808Y-102356497I-890999J-1425002D01*
G01*
X124200000Y-100282000D02*
G75*
G03*
X124200000Y-100282000I-1680000J0D01*
G01*
%TO.C,R9*%
X111268742Y-77201500D02*
X111743258Y-77201500D01*
X111268742Y-78246500D02*
X111743258Y-78246500D01*
%TO.C,C7*%
X101260000Y-91339836D02*
X101260000Y-91124164D01*
X101980000Y-91339836D02*
X101980000Y-91124164D01*
%TO.C,U3*%
X113570000Y-87392000D02*
X115370000Y-87392000D01*
X113570000Y-87392000D02*
X112770000Y-87392000D01*
X113570000Y-84272000D02*
X114370000Y-84272000D01*
X113570000Y-84272000D02*
X112770000Y-84272000D01*
%TO.C,D2*%
X107910000Y-103482000D02*
X107910000Y-105482000D01*
X107910000Y-103482000D02*
X111920000Y-103482000D01*
X107910000Y-105482000D02*
X111920000Y-105482000D01*
%TO.C,C2*%
X99329420Y-104972000D02*
X99610580Y-104972000D01*
X99329420Y-105992000D02*
X99610580Y-105992000D01*
%TO.C,C3*%
X87770580Y-89918000D02*
X87489420Y-89918000D01*
X87770580Y-88898000D02*
X87489420Y-88898000D01*
%TO.C,R11*%
X93244641Y-82295000D02*
X92937359Y-82295000D01*
X93244641Y-81535000D02*
X92937359Y-81535000D01*
%TO.C,Q1*%
X118130000Y-100444500D02*
X118130000Y-98769500D01*
X118130000Y-100444500D02*
X118130000Y-101094500D01*
X115010000Y-100444500D02*
X115010000Y-99794500D01*
X115010000Y-100444500D02*
X115010000Y-101094500D01*
%TO.C,R3*%
X87342500Y-105999242D02*
X87342500Y-106473758D01*
X86297500Y-105999242D02*
X86297500Y-106473758D01*
%TO.C,R10*%
X95096359Y-81535000D02*
X95403641Y-81535000D01*
X95096359Y-82295000D02*
X95403641Y-82295000D01*
%TO.C,C8*%
X91967164Y-89048000D02*
X92182836Y-89048000D01*
X91967164Y-89768000D02*
X92182836Y-89768000D01*
%TO.C,D1*%
X88885000Y-107771500D02*
X90355000Y-107771500D01*
X90355000Y-107771500D02*
X90355000Y-105486500D01*
X88885000Y-105486500D02*
X88885000Y-107771500D01*
D13*
%TO.C,J5*%
X126649500Y-90432000D02*
X126419500Y-90432000D01*
X126649500Y-90432000D02*
X126649500Y-82832000D01*
X126649500Y-82832000D02*
X126419500Y-82832000D01*
D12*
%TO.C,D4*%
X112980000Y-74817000D02*
X112980000Y-73347000D01*
X112980000Y-73347000D02*
X110695000Y-73347000D01*
X110695000Y-74817000D02*
X112980000Y-74817000D01*
%TO.C,R4*%
X117227500Y-108390258D02*
X117227500Y-107915742D01*
X118272500Y-108390258D02*
X118272500Y-107915742D01*
%TO.C,J1*%
X100085000Y-76462000D02*
X100145000Y-76462000D01*
X100085000Y-76462000D02*
X100085000Y-73802000D01*
X106495000Y-76462000D02*
X106555000Y-76462000D01*
X106555000Y-76462000D02*
X106555000Y-73802000D01*
X100085000Y-73802000D02*
X100145000Y-73802000D01*
X100145000Y-73802000D02*
X100145000Y-72342000D01*
X106495000Y-73802000D02*
X106555000Y-73802000D01*
%TO.C,U2*%
X112760000Y-109982000D02*
X112760000Y-111782000D01*
X112760000Y-109982000D02*
X112760000Y-109182000D01*
X115880000Y-109982000D02*
X115880000Y-110782000D01*
X115880000Y-109982000D02*
X115880000Y-109182000D01*
%TO.C,U1*%
X90360000Y-92347000D02*
X90360000Y-93297000D01*
X90360000Y-93297000D02*
X89020000Y-93297000D01*
X90360000Y-102567000D02*
X90360000Y-101617000D01*
X91310000Y-92347000D02*
X90360000Y-92347000D01*
X91310000Y-102567000D02*
X90360000Y-102567000D01*
X99630000Y-92347000D02*
X100580000Y-92347000D01*
X99630000Y-102567000D02*
X100580000Y-102567000D01*
X100580000Y-92347000D02*
X100580000Y-93297000D01*
X100580000Y-102567000D02*
X100580000Y-101617000D01*
%TO.C,C4*%
X87560000Y-93269836D02*
X87560000Y-93054164D01*
X88280000Y-93269836D02*
X88280000Y-93054164D01*
%TO.C,Y1*%
X85030000Y-93422000D02*
X81730000Y-93422000D01*
X81730000Y-93422000D02*
X81730000Y-97422000D01*
%TO.C,FB1*%
X112360000Y-100719122D02*
X112360000Y-99919878D01*
X113480000Y-100719122D02*
X113480000Y-99919878D01*
%TO.C,C10*%
X85215000Y-100851580D02*
X85215000Y-100570420D01*
X86235000Y-100851580D02*
X86235000Y-100570420D01*
%TO.C,L2*%
X109180000Y-112492000D02*
X109180000Y-111142000D01*
X109180000Y-112492000D02*
X103260000Y-112492000D01*
X109180000Y-106772000D02*
X109180000Y-108122000D01*
X109180000Y-106772000D02*
X103260000Y-106772000D01*
X103260000Y-112492000D02*
X103260000Y-111142000D01*
X103260000Y-106772000D02*
X103260000Y-108122000D01*
%TO.C,C12*%
X83546836Y-98732000D02*
X83331164Y-98732000D01*
X83546836Y-98012000D02*
X83331164Y-98012000D01*
%TO.C,F1*%
X112117936Y-95522000D02*
X113322064Y-95522000D01*
X112117936Y-97342000D02*
X113322064Y-97342000D01*
%TO.C,R8*%
X122472500Y-111929742D02*
X122472500Y-112404258D01*
X121427500Y-111929742D02*
X121427500Y-112404258D01*
%TO.C,C14*%
X112158748Y-114972000D02*
X113581252Y-114972000D01*
X112158748Y-116792000D02*
X113581252Y-116792000D01*
%TO.C,C15*%
X112258748Y-117922000D02*
X113681252Y-117922000D01*
X112258748Y-119742000D02*
X113681252Y-119742000D01*
%TO.C,C1*%
X102995000Y-91199580D02*
X102995000Y-90918420D01*
X104015000Y-91199580D02*
X104015000Y-90918420D01*
%TO.C,C9*%
X87270000Y-100183836D02*
X87270000Y-99968164D01*
X87990000Y-100183836D02*
X87990000Y-99968164D01*
%TO.C,D3*%
X115760000Y-95482000D02*
X115760000Y-97482000D01*
X115760000Y-95482000D02*
X119770000Y-95482000D01*
X115760000Y-97482000D02*
X119770000Y-97482000D01*
%TO.C,C11*%
X83422164Y-91412000D02*
X83637836Y-91412000D01*
X83422164Y-92132000D02*
X83637836Y-92132000D01*
%TO.C,C6*%
X101930000Y-103304164D02*
X101930000Y-103519836D01*
X101210000Y-103304164D02*
X101210000Y-103519836D01*
%TO.C,C13*%
X115008748Y-103572000D02*
X116431252Y-103572000D01*
X115008748Y-105392000D02*
X116431252Y-105392000D01*
%TO.C,R7*%
X119277500Y-112404258D02*
X119277500Y-111929742D01*
X120322500Y-112404258D02*
X120322500Y-111929742D01*
%TO.C,J4*%
X97055000Y-77492000D02*
X97055000Y-71772000D01*
X97055000Y-71772000D02*
X93570000Y-71772000D01*
X95985000Y-77492000D02*
X97055000Y-77492000D01*
X95985000Y-77192000D02*
X95985000Y-77492000D01*
X95695000Y-77782000D02*
X96195000Y-77782000D01*
X95695000Y-77482000D02*
X95695000Y-77782000D01*
X93570000Y-77192000D02*
X95985000Y-77192000D01*
X93570000Y-77192000D02*
X91155000Y-77192000D01*
X91155000Y-77492000D02*
X90085000Y-77492000D01*
X91155000Y-77192000D02*
X91155000Y-77492000D01*
X90085000Y-77492000D02*
X90085000Y-71772000D01*
X90085000Y-71772000D02*
X93570000Y-71772000D01*
%TO.C,R5*%
X120122500Y-107840742D02*
X120122500Y-108315258D01*
X119077500Y-107840742D02*
X119077500Y-108315258D01*
%TO.C,R2*%
X82396359Y-85091000D02*
X82703641Y-85091000D01*
X82396359Y-85851000D02*
X82703641Y-85851000D01*
%TD*%
M02*
