%TF.GenerationSoftware,KiCad,Pcbnew,7.0.2*%
%TF.CreationDate,2023-06-15T10:28:23+05:30*%
%TF.ProjectId,stm32,73746d33-322e-46b6-9963-61645f706362,rev?*%
%TF.SameCoordinates,Original*%
%TF.FileFunction,Copper,L2,Inr*%
%TF.FilePolarity,Positive*%
%FSLAX46Y46*%
G04 Gerber Fmt 4.6, Leading zero omitted, Abs format (unit mm)*
G04 Created by KiCad (PCBNEW 7.0.2) date 2023-06-15 10:28:23*
%MOMM*%
%LPD*%
G01*
G04 APERTURE LIST*
G04 Aperture macros list*
%AMRoundRect*
0 Rectangle with rounded corners*
0 $1 Rounding radius*
0 $2 $3 $4 $5 $6 $7 $8 $9 X,Y pos of 4 corners*
0 Add a 4 corners polygon primitive as box body*
4,1,4,$2,$3,$4,$5,$6,$7,$8,$9,$2,$3,0*
0 Add four circle primitives for the rounded corners*
1,1,$1+$1,$2,$3*
1,1,$1+$1,$4,$5*
1,1,$1+$1,$6,$7*
1,1,$1+$1,$8,$9*
0 Add four rect primitives between the rounded corners*
20,1,$1+$1,$2,$3,$4,$5,0*
20,1,$1+$1,$4,$5,$6,$7,0*
20,1,$1+$1,$6,$7,$8,$9,0*
20,1,$1+$1,$8,$9,$2,$3,0*%
G04 Aperture macros list end*
%TA.AperFunction,ComponentPad*%
%ADD10RoundRect,0.200000X-0.200000X-0.450000X0.200000X-0.450000X0.200000X0.450000X-0.200000X0.450000X0*%
%TD*%
%TA.AperFunction,ComponentPad*%
%ADD11O,0.800000X1.300000*%
%TD*%
%TA.AperFunction,ComponentPad*%
%ADD12R,2.400000X2.400000*%
%TD*%
%TA.AperFunction,ComponentPad*%
%ADD13C,2.400000*%
%TD*%
%TA.AperFunction,ComponentPad*%
%ADD14C,0.900000*%
%TD*%
%TA.AperFunction,ComponentPad*%
%ADD15C,8.600000*%
%TD*%
%TA.AperFunction,ComponentPad*%
%ADD16RoundRect,0.200000X0.200000X0.450000X-0.200000X0.450000X-0.200000X-0.450000X0.200000X-0.450000X0*%
%TD*%
%TA.AperFunction,ViaPad*%
%ADD17C,0.800000*%
%TD*%
G04 APERTURE END LIST*
D10*
%TO.N,+3.3V*%
%TO.C,J3*%
X93657500Y-116682000D03*
D11*
%TO.N,USART3_TX*%
X94907500Y-116682000D03*
%TO.N,USART3_RX*%
X96157500Y-116682000D03*
%TO.N,GND*%
X97407500Y-116682000D03*
%TD*%
D12*
%TO.N,+12V*%
%TO.C,J2*%
X122520000Y-103782000D03*
D13*
%TO.N,GND*%
X122520000Y-100282000D03*
%TD*%
D14*
%TO.N,GND*%
%TO.C,H1*%
X119114581Y-74601581D03*
X120059162Y-72321162D03*
X120059162Y-76882000D03*
X122339581Y-71376581D03*
D15*
X122339581Y-74601581D03*
D14*
X122339581Y-77826581D03*
X124620000Y-72321162D03*
X124620000Y-76882000D03*
X125564581Y-74601581D03*
%TD*%
%TO.N,GND*%
%TO.C,H3*%
X78735600Y-119316800D03*
X79680181Y-117036381D03*
X79680181Y-121597219D03*
X81960600Y-116091800D03*
D15*
X81960600Y-119316800D03*
D14*
X81960600Y-122541800D03*
X84241019Y-117036381D03*
X84241019Y-121597219D03*
X85185600Y-119316800D03*
%TD*%
%TO.N,GND*%
%TO.C,H4*%
X78314581Y-75251581D03*
X79259162Y-72971162D03*
X79259162Y-77532000D03*
X81539581Y-72026581D03*
D15*
X81539581Y-75251581D03*
D14*
X81539581Y-78476581D03*
X83820000Y-72971162D03*
X83820000Y-77532000D03*
X84764581Y-75251581D03*
%TD*%
D16*
%TO.N,+3.3V*%
%TO.C,J4*%
X95445000Y-76332000D03*
D11*
%TO.N,I2C1_SCL*%
X94195000Y-76332000D03*
%TO.N,I2C1_SDA*%
X92945000Y-76332000D03*
%TO.N,GND*%
X91695000Y-76332000D03*
%TD*%
D14*
%TO.N,GND*%
%TO.C,H2*%
X119914581Y-119101581D03*
X120859162Y-116821162D03*
X120859162Y-121382000D03*
X123139581Y-115876581D03*
D15*
X123139581Y-119101581D03*
D14*
X123139581Y-122326581D03*
X125420000Y-116821162D03*
X125420000Y-121382000D03*
X126364581Y-119101581D03*
%TD*%
D17*
%TO.N,+3.3V*%
X110617000Y-72771000D03*
X99187000Y-73787000D03*
X101092000Y-92837000D03*
X104013000Y-109728000D03*
X90678000Y-89408000D03*
%TO.N,GND*%
X114194500Y-85781500D03*
X117094000Y-85598000D03*
X120396000Y-85344000D03*
X102108000Y-89916000D03*
X103759000Y-89027000D03*
X114554000Y-112522000D03*
X116078000Y-118999000D03*
X115697000Y-115570000D03*
X122682000Y-110109000D03*
X117729000Y-97917000D03*
X120904000Y-107442000D03*
X111633000Y-106172000D03*
X117348000Y-102743000D03*
X103124000Y-104013000D03*
X100076000Y-106807000D03*
X87249000Y-104013000D03*
X92329000Y-101600000D03*
X87249000Y-98552000D03*
X83058000Y-99314000D03*
X84201000Y-99822000D03*
X80899000Y-96774000D03*
X85852000Y-94361000D03*
X84328000Y-90805000D03*
X80391000Y-87249000D03*
X87884000Y-91567000D03*
X85598000Y-89535000D03*
X103378000Y-71374000D03*
X102235000Y-71247000D03*
X105918000Y-71501000D03*
X110744000Y-77724000D03*
%TO.N,+3.3V*%
X118745000Y-113030000D03*
X116713000Y-113030000D03*
X112268000Y-118872000D03*
X110490000Y-118745000D03*
X112014000Y-115951000D03*
X110490000Y-115951000D03*
X105029000Y-111125000D03*
X105156000Y-108077000D03*
X103378000Y-108204000D03*
X100838000Y-71247000D03*
X82804000Y-100457000D03*
X103378000Y-111125000D03*
X93726000Y-114554000D03*
X102489000Y-102997000D03*
X93599000Y-105791000D03*
X81026000Y-100457000D03*
X80391000Y-82550000D03*
X90678000Y-89408000D03*
X89662000Y-89408000D03*
%TO.N,+5V*%
X112395000Y-85882500D03*
X114554000Y-90297000D03*
%TO.N,SWDIO*%
X100584000Y-88900000D03*
X99725745Y-93001047D03*
%TO.N,GND*%
X92970500Y-90170000D03*
%TO.N,+3.3V*%
X88011000Y-94615000D03*
X91694000Y-81915000D03*
X96647000Y-81915000D03*
%TD*%
%TA.AperFunction,Conductor*%
%TO.N,GND*%
G36*
X80385631Y-120787718D02*
G01*
X80600590Y-120988476D01*
X80625144Y-121005808D01*
X79975527Y-121655425D01*
X79984076Y-121625379D01*
X79973727Y-121513698D01*
X79923733Y-121413297D01*
X79840847Y-121337735D01*
X79736261Y-121297219D01*
X79652379Y-121297219D01*
X79620705Y-121303139D01*
X80273703Y-120650141D01*
X80385631Y-120787718D01*
G37*
%TD.AperFunction*%
%TA.AperFunction,Conductor*%
G36*
X84294573Y-121297219D02*
G01*
X84213217Y-121297219D01*
X84130769Y-121312631D01*
X84035409Y-121371676D01*
X83967818Y-121461181D01*
X83937124Y-121569059D01*
X83945071Y-121654825D01*
X83296055Y-121005808D01*
X83320610Y-120988476D01*
X83535569Y-120787718D01*
X83647495Y-120650142D01*
X84294573Y-121297219D01*
G37*
%TD.AperFunction*%
%TA.AperFunction,Conductor*%
G36*
X80625145Y-117627791D02*
G01*
X80600590Y-117645124D01*
X80385631Y-117845882D01*
X80273704Y-117983457D01*
X79626628Y-117336381D01*
X79707983Y-117336381D01*
X79790431Y-117320969D01*
X79885791Y-117261924D01*
X79953382Y-117172419D01*
X79984076Y-117064541D01*
X79976128Y-116978774D01*
X80625145Y-117627791D01*
G37*
%TD.AperFunction*%
%TA.AperFunction,Conductor*%
G36*
X83937124Y-117008221D02*
G01*
X83947473Y-117119902D01*
X83997467Y-117220303D01*
X84080353Y-117295865D01*
X84184939Y-117336381D01*
X84268821Y-117336381D01*
X84300490Y-117330461D01*
X83647494Y-117983456D01*
X83535569Y-117845882D01*
X83320610Y-117645124D01*
X83296053Y-117627790D01*
X83945674Y-116978169D01*
X83937124Y-117008221D01*
G37*
%TD.AperFunction*%
%TA.AperFunction,Conductor*%
G36*
X121564612Y-120572499D02*
G01*
X121779571Y-120773257D01*
X121804125Y-120790589D01*
X121154508Y-121440206D01*
X121163057Y-121410160D01*
X121152708Y-121298479D01*
X121102714Y-121198078D01*
X121019828Y-121122516D01*
X120915242Y-121082000D01*
X120831360Y-121082000D01*
X120799686Y-121087920D01*
X121452684Y-120434922D01*
X121564612Y-120572499D01*
G37*
%TD.AperFunction*%
%TA.AperFunction,Conductor*%
G36*
X125473553Y-121082000D02*
G01*
X125392198Y-121082000D01*
X125309750Y-121097412D01*
X125214390Y-121156457D01*
X125146799Y-121245962D01*
X125116105Y-121353840D01*
X125124052Y-121439606D01*
X124475036Y-120790589D01*
X124499591Y-120773257D01*
X124714550Y-120572499D01*
X124826476Y-120434923D01*
X125473553Y-121082000D01*
G37*
%TD.AperFunction*%
%TA.AperFunction,Conductor*%
G36*
X121804126Y-117412572D02*
G01*
X121779571Y-117429905D01*
X121564612Y-117630663D01*
X121452685Y-117768239D01*
X120805608Y-117121162D01*
X120886964Y-117121162D01*
X120969412Y-117105750D01*
X121064772Y-117046705D01*
X121132363Y-116957200D01*
X121163057Y-116849322D01*
X121155109Y-116763555D01*
X121804126Y-117412572D01*
G37*
%TD.AperFunction*%
%TA.AperFunction,Conductor*%
G36*
X125116105Y-116793002D02*
G01*
X125126454Y-116904683D01*
X125176448Y-117005084D01*
X125259334Y-117080646D01*
X125363920Y-117121162D01*
X125447802Y-117121162D01*
X125479470Y-117115242D01*
X124826475Y-117768237D01*
X124714550Y-117630663D01*
X124499591Y-117429905D01*
X124475034Y-117412571D01*
X125124655Y-116762950D01*
X125116105Y-116793002D01*
G37*
%TD.AperFunction*%
%TA.AperFunction,Conductor*%
G36*
X79964612Y-76722499D02*
G01*
X80179571Y-76923257D01*
X80204125Y-76940589D01*
X79554508Y-77590206D01*
X79563057Y-77560160D01*
X79552708Y-77448479D01*
X79502714Y-77348078D01*
X79419828Y-77272516D01*
X79315242Y-77232000D01*
X79231360Y-77232000D01*
X79199686Y-77237920D01*
X79852684Y-76584922D01*
X79964612Y-76722499D01*
G37*
%TD.AperFunction*%
%TA.AperFunction,Conductor*%
G36*
X83873554Y-77232000D02*
G01*
X83792198Y-77232000D01*
X83709750Y-77247412D01*
X83614390Y-77306457D01*
X83546799Y-77395962D01*
X83516105Y-77503840D01*
X83524052Y-77589606D01*
X82875036Y-76940589D01*
X82899591Y-76923257D01*
X83114550Y-76722499D01*
X83226476Y-76584922D01*
X83873554Y-77232000D01*
G37*
%TD.AperFunction*%
%TA.AperFunction,Conductor*%
G36*
X80204126Y-73562572D02*
G01*
X80179571Y-73579905D01*
X79964612Y-73780663D01*
X79852685Y-73918238D01*
X79205609Y-73271162D01*
X79286964Y-73271162D01*
X79369412Y-73255750D01*
X79464772Y-73196705D01*
X79532363Y-73107200D01*
X79563057Y-72999322D01*
X79555109Y-72913555D01*
X80204126Y-73562572D01*
G37*
%TD.AperFunction*%
%TA.AperFunction,Conductor*%
G36*
X83516105Y-72943002D02*
G01*
X83526454Y-73054683D01*
X83576448Y-73155084D01*
X83659334Y-73230646D01*
X83763920Y-73271162D01*
X83847802Y-73271162D01*
X83879471Y-73265242D01*
X83226475Y-73918237D01*
X83114550Y-73780663D01*
X82899591Y-73579905D01*
X82875034Y-73562571D01*
X83524655Y-72912950D01*
X83516105Y-72943002D01*
G37*
%TD.AperFunction*%
%TA.AperFunction,Conductor*%
G36*
X120764612Y-76072499D02*
G01*
X120979571Y-76273257D01*
X121004125Y-76290589D01*
X120354508Y-76940206D01*
X120363057Y-76910160D01*
X120352708Y-76798479D01*
X120302714Y-76698078D01*
X120219828Y-76622516D01*
X120115242Y-76582000D01*
X120031360Y-76582000D01*
X119999686Y-76587920D01*
X120652684Y-75934922D01*
X120764612Y-76072499D01*
G37*
%TD.AperFunction*%
%TA.AperFunction,Conductor*%
G36*
X124673554Y-76582000D02*
G01*
X124592198Y-76582000D01*
X124509750Y-76597412D01*
X124414390Y-76656457D01*
X124346799Y-76745962D01*
X124316105Y-76853840D01*
X124324052Y-76939606D01*
X123675036Y-76290589D01*
X123699591Y-76273257D01*
X123914550Y-76072499D01*
X124026476Y-75934923D01*
X124673554Y-76582000D01*
G37*
%TD.AperFunction*%
%TA.AperFunction,Conductor*%
G36*
X121004126Y-72912572D02*
G01*
X120979571Y-72929905D01*
X120764612Y-73130663D01*
X120652685Y-73268239D01*
X120005608Y-72621162D01*
X120086964Y-72621162D01*
X120169412Y-72605750D01*
X120264772Y-72546705D01*
X120332363Y-72457200D01*
X120363057Y-72349322D01*
X120355109Y-72263555D01*
X121004126Y-72912572D01*
G37*
%TD.AperFunction*%
%TA.AperFunction,Conductor*%
G36*
X124316105Y-72293002D02*
G01*
X124326454Y-72404683D01*
X124376448Y-72505084D01*
X124459334Y-72580646D01*
X124563920Y-72621162D01*
X124647802Y-72621162D01*
X124679471Y-72615242D01*
X124026475Y-73268237D01*
X123914550Y-73130663D01*
X123699591Y-72929905D01*
X123675034Y-72912571D01*
X124324655Y-72262950D01*
X124316105Y-72293002D01*
G37*
%TD.AperFunction*%
%TA.AperFunction,Conductor*%
G36*
X123272630Y-68697308D02*
G01*
X123490925Y-68705696D01*
X123763487Y-68716787D01*
X123772624Y-68717501D01*
X124014687Y-68745515D01*
X124264929Y-68776196D01*
X124273501Y-68777553D01*
X124516942Y-68824884D01*
X124760185Y-68875036D01*
X124768014Y-68876919D01*
X125009007Y-68943316D01*
X125246034Y-69012671D01*
X125253107Y-69014976D01*
X125488287Y-69099668D01*
X125490602Y-69100528D01*
X125719441Y-69188232D01*
X125725825Y-69190888D01*
X125954273Y-69293583D01*
X125956998Y-69294849D01*
X126177497Y-69400634D01*
X126183180Y-69403545D01*
X126403316Y-69523600D01*
X126406459Y-69525375D01*
X126617339Y-69648551D01*
X126622311Y-69651615D01*
X126732134Y-69722956D01*
X126832717Y-69788295D01*
X126836201Y-69790643D01*
X127036216Y-69930431D01*
X127040512Y-69933573D01*
X127170370Y-70032888D01*
X127239839Y-70086017D01*
X127243558Y-70088975D01*
X127359121Y-70184609D01*
X127431547Y-70244544D01*
X127435149Y-70247643D01*
X127589679Y-70385856D01*
X127622204Y-70414946D01*
X127626094Y-70418579D01*
X127800847Y-70588930D01*
X127803805Y-70591913D01*
X127977398Y-70773002D01*
X127981367Y-70777344D01*
X128141796Y-70961436D01*
X128144148Y-70964216D01*
X128303239Y-71157977D01*
X128307196Y-71163060D01*
X128452307Y-71359803D01*
X128454106Y-71362306D01*
X128597693Y-71567467D01*
X128601544Y-71573315D01*
X128730485Y-71781672D01*
X128731790Y-71783829D01*
X128858910Y-71998894D01*
X128862558Y-72005519D01*
X128975012Y-72225354D01*
X128984832Y-72245323D01*
X129085300Y-72449636D01*
X129088640Y-72457031D01*
X129183414Y-72686610D01*
X129275428Y-72916848D01*
X129278365Y-72925014D01*
X129355338Y-73165165D01*
X129428118Y-73397648D01*
X129430548Y-73406564D01*
X129492367Y-73671973D01*
X129538965Y-73874101D01*
X129542133Y-73901420D01*
X129735480Y-118608418D01*
X129735390Y-118613715D01*
X129726572Y-118843223D01*
X129715998Y-119103780D01*
X129715278Y-119113007D01*
X129686243Y-119363905D01*
X129656657Y-119605220D01*
X129655300Y-119613794D01*
X129606883Y-119862826D01*
X129557901Y-120100397D01*
X129556002Y-120108290D01*
X129488448Y-120353486D01*
X129420360Y-120586185D01*
X129418018Y-120593368D01*
X129332128Y-120831873D01*
X129331250Y-120834236D01*
X129244886Y-121059582D01*
X129242196Y-121066048D01*
X129138223Y-121297335D01*
X129136925Y-121300129D01*
X129032594Y-121517598D01*
X129029657Y-121523333D01*
X128908205Y-121746028D01*
X128906414Y-121749199D01*
X128784793Y-121957415D01*
X128781707Y-121962422D01*
X128643536Y-122175124D01*
X128641188Y-122178609D01*
X128503055Y-122376254D01*
X128499913Y-122380550D01*
X128345782Y-122582079D01*
X128342817Y-122585805D01*
X128189139Y-122771508D01*
X128186033Y-122775118D01*
X128016886Y-122964233D01*
X128013253Y-122968124D01*
X127844957Y-123140766D01*
X127841973Y-123143724D01*
X127658844Y-123319269D01*
X127654503Y-123323237D01*
X127472724Y-123481650D01*
X127469943Y-123484003D01*
X127273882Y-123644979D01*
X127268799Y-123648936D01*
X127074708Y-123792088D01*
X127072205Y-123793886D01*
X126864442Y-123939292D01*
X126858594Y-123943144D01*
X126653373Y-124070142D01*
X126651215Y-124071447D01*
X126433004Y-124200423D01*
X126426380Y-124204071D01*
X126210530Y-124314483D01*
X125982280Y-124426719D01*
X125974884Y-124430059D01*
X125750687Y-124522607D01*
X125515097Y-124616759D01*
X125506930Y-124619695D01*
X125275374Y-124693910D01*
X125034339Y-124769365D01*
X125025423Y-124771795D01*
X124895849Y-124801973D01*
X124870018Y-124805184D01*
X79434556Y-125646581D01*
X79397434Y-125641611D01*
X79365807Y-125632356D01*
X79358620Y-125630013D01*
X79120124Y-125544128D01*
X79117761Y-125543250D01*
X78892416Y-125456886D01*
X78885950Y-125454196D01*
X78654663Y-125350223D01*
X78651869Y-125348925D01*
X78434400Y-125244594D01*
X78428665Y-125241657D01*
X78205970Y-125120205D01*
X78202799Y-125118414D01*
X77994583Y-124996793D01*
X77989576Y-124993707D01*
X77776874Y-124855536D01*
X77773389Y-124853188D01*
X77704703Y-124805184D01*
X77575744Y-124715055D01*
X77571448Y-124711913D01*
X77369919Y-124557782D01*
X77366193Y-124554817D01*
X77180490Y-124401139D01*
X77176880Y-124398033D01*
X77118349Y-124345682D01*
X76987742Y-124228864D01*
X76983898Y-124225275D01*
X76811232Y-124056957D01*
X76808274Y-124053973D01*
X76632729Y-123870844D01*
X76628761Y-123866503D01*
X76470348Y-123684724D01*
X76468020Y-123681972D01*
X76307019Y-123485882D01*
X76303073Y-123480814D01*
X76159878Y-123286664D01*
X76158112Y-123284205D01*
X76038287Y-123112993D01*
X76012703Y-123076437D01*
X76008854Y-123070594D01*
X75893059Y-122883476D01*
X75881838Y-122865343D01*
X75880551Y-122863215D01*
X75878526Y-122859789D01*
X75751561Y-122644979D01*
X75747934Y-122638392D01*
X75685615Y-122516561D01*
X75637516Y-122422529D01*
X75525279Y-122194280D01*
X75521945Y-122186900D01*
X75429391Y-121962687D01*
X75396760Y-121881037D01*
X75335224Y-121727058D01*
X75332309Y-121718949D01*
X75258116Y-121487460D01*
X75182620Y-121246292D01*
X75180211Y-121237452D01*
X75124167Y-120996824D01*
X75072062Y-120770798D01*
X75068895Y-120742579D01*
X75069401Y-120572499D01*
X75073128Y-119319583D01*
X77155887Y-119319583D01*
X77174980Y-119744724D01*
X77175477Y-119750252D01*
X77232604Y-120171977D01*
X77233598Y-120177454D01*
X77328297Y-120592357D01*
X77329773Y-120597705D01*
X77461278Y-121002437D01*
X77463244Y-121007676D01*
X77630493Y-121398972D01*
X77632910Y-121403993D01*
X77834575Y-121778749D01*
X77837427Y-121783522D01*
X78071867Y-122138685D01*
X78075140Y-122143191D01*
X78340479Y-122475914D01*
X78344143Y-122480108D01*
X78392823Y-122531022D01*
X79384835Y-121539009D01*
X79376286Y-121569059D01*
X79386635Y-121680740D01*
X79436629Y-121781141D01*
X79519515Y-121856703D01*
X79624101Y-121897219D01*
X79707983Y-121897219D01*
X79739653Y-121891298D01*
X78747477Y-122883475D01*
X78962740Y-123071545D01*
X78967082Y-123075008D01*
X79311375Y-123325151D01*
X79316012Y-123328212D01*
X79681363Y-123546500D01*
X79686234Y-123549121D01*
X80069665Y-123733771D01*
X80074792Y-123735963D01*
X80473212Y-123885492D01*
X80478510Y-123887213D01*
X80888733Y-124000428D01*
X80894168Y-124001669D01*
X81312890Y-124077655D01*
X81318400Y-124078402D01*
X81742268Y-124116551D01*
X81747809Y-124116800D01*
X82173391Y-124116800D01*
X82178931Y-124116551D01*
X82602799Y-124078402D01*
X82608309Y-124077655D01*
X83027031Y-124001669D01*
X83032466Y-124000428D01*
X83442689Y-123887213D01*
X83447987Y-123885492D01*
X83846407Y-123735963D01*
X83851534Y-123733771D01*
X84234965Y-123549121D01*
X84239836Y-123546500D01*
X84605187Y-123328212D01*
X84609824Y-123325151D01*
X84954105Y-123075016D01*
X84958477Y-123071530D01*
X85173721Y-122883476D01*
X85173721Y-122883475D01*
X84187465Y-121897219D01*
X84268821Y-121897219D01*
X84351269Y-121881807D01*
X84446629Y-121822762D01*
X84514220Y-121733257D01*
X84544914Y-121625379D01*
X84536966Y-121539612D01*
X85528375Y-122531021D01*
X85577067Y-122480095D01*
X85580719Y-122475915D01*
X85846059Y-122143191D01*
X85849332Y-122138685D01*
X86083772Y-121783522D01*
X86086624Y-121778749D01*
X86288289Y-121403993D01*
X86290706Y-121398972D01*
X86457955Y-121007676D01*
X86459921Y-121002437D01*
X86591426Y-120597705D01*
X86592902Y-120592357D01*
X86687601Y-120177454D01*
X86688595Y-120171977D01*
X86745722Y-119750252D01*
X86746219Y-119744724D01*
X86765312Y-119319583D01*
X86765312Y-119314016D01*
X86746219Y-118888875D01*
X86745722Y-118883347D01*
X86726981Y-118745000D01*
X109584540Y-118745000D01*
X109604326Y-118933257D01*
X109662820Y-119113284D01*
X109757466Y-119277216D01*
X109884129Y-119417889D01*
X110037269Y-119529151D01*
X110210197Y-119606144D01*
X110395352Y-119645500D01*
X110395354Y-119645500D01*
X110584648Y-119645500D01*
X110733812Y-119613794D01*
X110769803Y-119606144D01*
X110942730Y-119529151D01*
X111044606Y-119455134D01*
X111095870Y-119417889D01*
X111177596Y-119327124D01*
X111222533Y-119277216D01*
X111234950Y-119255708D01*
X111285516Y-119207492D01*
X111354123Y-119194268D01*
X111418988Y-119220235D01*
X111449725Y-119255707D01*
X111535466Y-119404216D01*
X111662129Y-119544889D01*
X111815269Y-119656151D01*
X111988197Y-119733144D01*
X112173352Y-119772500D01*
X112173354Y-119772500D01*
X112362648Y-119772500D01*
X112493323Y-119744724D01*
X112547803Y-119733144D01*
X112720730Y-119656151D01*
X112796105Y-119601388D01*
X112873870Y-119544889D01*
X112876163Y-119542343D01*
X113000533Y-119404216D01*
X113095179Y-119240284D01*
X113139342Y-119104364D01*
X118334868Y-119104364D01*
X118353961Y-119529505D01*
X118354458Y-119535033D01*
X118411585Y-119956758D01*
X118412579Y-119962235D01*
X118507278Y-120377138D01*
X118508754Y-120382486D01*
X118640259Y-120787218D01*
X118642225Y-120792457D01*
X118809474Y-121183753D01*
X118811891Y-121188774D01*
X119013556Y-121563530D01*
X119016408Y-121568303D01*
X119250848Y-121923466D01*
X119254121Y-121927972D01*
X119519460Y-122260695D01*
X119523124Y-122264889D01*
X119571804Y-122315803D01*
X120563816Y-121323790D01*
X120555267Y-121353840D01*
X120565616Y-121465521D01*
X120615610Y-121565922D01*
X120698496Y-121641484D01*
X120803082Y-121682000D01*
X120886964Y-121682000D01*
X120918634Y-121676079D01*
X119926458Y-122668256D01*
X120141721Y-122856326D01*
X120146063Y-122859789D01*
X120490356Y-123109932D01*
X120494993Y-123112993D01*
X120860344Y-123331281D01*
X120865215Y-123333902D01*
X121248646Y-123518552D01*
X121253773Y-123520744D01*
X121652193Y-123670273D01*
X121657491Y-123671994D01*
X122067714Y-123785209D01*
X122073149Y-123786450D01*
X122491871Y-123862436D01*
X122497381Y-123863183D01*
X122921249Y-123901332D01*
X122926790Y-123901581D01*
X123352372Y-123901581D01*
X123357912Y-123901332D01*
X123781780Y-123863183D01*
X123787290Y-123862436D01*
X124206012Y-123786450D01*
X124211447Y-123785209D01*
X124621670Y-123671994D01*
X124626968Y-123670273D01*
X125025388Y-123520744D01*
X125030515Y-123518552D01*
X125413946Y-123333902D01*
X125418817Y-123331281D01*
X125784168Y-123112993D01*
X125788805Y-123109932D01*
X126133086Y-122859797D01*
X126137458Y-122856311D01*
X126352702Y-122668257D01*
X126352702Y-122668256D01*
X125366446Y-121682000D01*
X125447802Y-121682000D01*
X125530250Y-121666588D01*
X125625610Y-121607543D01*
X125693201Y-121518038D01*
X125723895Y-121410160D01*
X125715947Y-121324394D01*
X126707356Y-122315803D01*
X126707357Y-122315803D01*
X126756038Y-122264888D01*
X126759700Y-122260696D01*
X127025040Y-121927972D01*
X127028313Y-121923466D01*
X127262753Y-121568303D01*
X127265605Y-121563530D01*
X127467270Y-121188774D01*
X127469687Y-121183753D01*
X127636936Y-120792457D01*
X127638902Y-120787218D01*
X127770407Y-120382486D01*
X127771883Y-120377138D01*
X127866582Y-119962235D01*
X127867576Y-119956758D01*
X127924703Y-119535033D01*
X127925200Y-119529505D01*
X127944294Y-119104364D01*
X127944294Y-119098797D01*
X127925200Y-118673656D01*
X127924703Y-118668128D01*
X127867576Y-118246403D01*
X127866582Y-118240926D01*
X127771883Y-117826023D01*
X127770407Y-117820675D01*
X127638902Y-117415943D01*
X127636936Y-117410704D01*
X127469687Y-117019408D01*
X127467270Y-117014387D01*
X127265605Y-116639631D01*
X127262753Y-116634858D01*
X127028313Y-116279695D01*
X127025040Y-116275189D01*
X126759701Y-115942466D01*
X126756037Y-115938272D01*
X126707356Y-115887357D01*
X125715346Y-116879366D01*
X125723895Y-116849322D01*
X125713546Y-116737641D01*
X125663552Y-116637240D01*
X125580666Y-116561678D01*
X125476080Y-116521162D01*
X125392198Y-116521162D01*
X125360522Y-116527083D01*
X126352702Y-115534904D01*
X126137440Y-115346835D01*
X126133098Y-115343372D01*
X125788805Y-115093229D01*
X125784168Y-115090168D01*
X125418817Y-114871880D01*
X125413946Y-114869259D01*
X125030515Y-114684609D01*
X125025388Y-114682417D01*
X124626968Y-114532888D01*
X124621670Y-114531167D01*
X124211447Y-114417952D01*
X124206012Y-114416711D01*
X123787290Y-114340725D01*
X123781780Y-114339978D01*
X123357912Y-114301829D01*
X123352372Y-114301581D01*
X122926790Y-114301581D01*
X122921249Y-114301829D01*
X122497381Y-114339978D01*
X122491871Y-114340725D01*
X122073149Y-114416711D01*
X122067714Y-114417952D01*
X121657491Y-114531167D01*
X121652193Y-114532888D01*
X121253773Y-114682417D01*
X121248646Y-114684609D01*
X120865215Y-114869259D01*
X120860344Y-114871880D01*
X120494993Y-115090168D01*
X120490356Y-115093229D01*
X120146063Y-115343372D01*
X120141721Y-115346835D01*
X119926458Y-115534903D01*
X119926458Y-115534904D01*
X120912716Y-116521162D01*
X120831360Y-116521162D01*
X120748912Y-116536574D01*
X120653552Y-116595619D01*
X120585961Y-116685124D01*
X120555267Y-116793002D01*
X120563214Y-116878768D01*
X119571804Y-115887358D01*
X119523124Y-115938273D01*
X119519455Y-115942472D01*
X119254121Y-116275189D01*
X119250848Y-116279695D01*
X119016408Y-116634858D01*
X119013556Y-116639631D01*
X118811891Y-117014387D01*
X118809474Y-117019408D01*
X118642225Y-117410704D01*
X118640259Y-117415943D01*
X118508754Y-117820675D01*
X118507278Y-117826023D01*
X118412579Y-118240926D01*
X118411585Y-118246403D01*
X118354458Y-118668128D01*
X118353961Y-118673656D01*
X118334868Y-119098797D01*
X118334868Y-119104364D01*
X113139342Y-119104364D01*
X113153674Y-119060256D01*
X113173460Y-118872000D01*
X113153674Y-118683744D01*
X113095179Y-118503716D01*
X113095179Y-118503715D01*
X113000533Y-118339783D01*
X112873870Y-118199110D01*
X112720730Y-118087848D01*
X112547802Y-118010855D01*
X112362648Y-117971500D01*
X112362646Y-117971500D01*
X112173354Y-117971500D01*
X112173352Y-117971500D01*
X111988197Y-118010855D01*
X111815269Y-118087848D01*
X111662129Y-118199110D01*
X111535466Y-118339784D01*
X111523047Y-118361294D01*
X111472479Y-118409509D01*
X111403872Y-118422730D01*
X111339008Y-118396761D01*
X111308274Y-118361292D01*
X111222533Y-118212783D01*
X111095870Y-118072110D01*
X110942730Y-117960848D01*
X110769802Y-117883855D01*
X110584648Y-117844500D01*
X110584646Y-117844500D01*
X110395354Y-117844500D01*
X110395352Y-117844500D01*
X110210197Y-117883855D01*
X110037269Y-117960848D01*
X109884129Y-118072110D01*
X109757466Y-118212783D01*
X109662820Y-118376715D01*
X109604326Y-118556742D01*
X109584540Y-118745000D01*
X86726981Y-118745000D01*
X86688595Y-118461622D01*
X86687601Y-118456145D01*
X86592902Y-118041242D01*
X86591426Y-118035894D01*
X86459921Y-117631162D01*
X86457955Y-117625923D01*
X86290706Y-117234627D01*
X86288289Y-117229606D01*
X86266231Y-117188616D01*
X92757000Y-117188616D01*
X92757254Y-117191420D01*
X92757255Y-117191424D01*
X92763413Y-117259193D01*
X92763414Y-117259196D01*
X92814022Y-117421606D01*
X92814023Y-117421607D01*
X92902028Y-117567186D01*
X93022313Y-117687471D01*
X93022315Y-117687472D01*
X93167894Y-117775478D01*
X93330304Y-117826086D01*
X93400884Y-117832500D01*
X93403703Y-117832500D01*
X93911297Y-117832500D01*
X93914116Y-117832500D01*
X93984696Y-117826086D01*
X94147106Y-117775478D01*
X94289169Y-117689596D01*
X94356721Y-117671761D01*
X94423195Y-117693278D01*
X94426201Y-117695394D01*
X94454770Y-117716151D01*
X94454771Y-117716151D01*
X94454772Y-117716152D01*
X94627697Y-117793144D01*
X94812852Y-117832500D01*
X94812854Y-117832500D01*
X95002148Y-117832500D01*
X95159917Y-117798965D01*
X95187303Y-117793144D01*
X95360230Y-117716151D01*
X95459615Y-117643943D01*
X95525421Y-117620464D01*
X95593474Y-117636289D01*
X95605378Y-117643939D01*
X95704770Y-117716151D01*
X95704771Y-117716151D01*
X95704772Y-117716152D01*
X95877697Y-117793144D01*
X96062852Y-117832500D01*
X96062854Y-117832500D01*
X96252148Y-117832500D01*
X96409917Y-117798965D01*
X96437303Y-117793144D01*
X96506693Y-117762248D01*
X96610227Y-117716153D01*
X96610230Y-117716151D01*
X96710041Y-117643634D01*
X96775845Y-117620155D01*
X96843899Y-117635980D01*
X96855811Y-117643635D01*
X96955021Y-117715716D01*
X97127853Y-117792664D01*
X97157500Y-117798965D01*
X97157500Y-116706623D01*
X97172005Y-116779545D01*
X97227260Y-116862240D01*
X97309955Y-116917495D01*
X97382876Y-116932000D01*
X97432124Y-116932000D01*
X97657500Y-116932000D01*
X97657500Y-117798965D01*
X97687146Y-117792664D01*
X97859978Y-117715716D01*
X98013035Y-117604513D01*
X98139626Y-117463920D01*
X98234219Y-117300079D01*
X98292681Y-117120152D01*
X98307161Y-116982383D01*
X98307500Y-116975922D01*
X98307500Y-116932000D01*
X97657500Y-116932000D01*
X97432124Y-116932000D01*
X97505045Y-116917495D01*
X97587740Y-116862240D01*
X97642995Y-116779545D01*
X97662398Y-116682000D01*
X97642995Y-116584455D01*
X97587740Y-116501760D01*
X97505045Y-116446505D01*
X97432124Y-116432000D01*
X97382876Y-116432000D01*
X97309955Y-116446505D01*
X97227260Y-116501760D01*
X97172005Y-116584455D01*
X97157500Y-116657376D01*
X97157500Y-115565033D01*
X97657500Y-115565033D01*
X97657500Y-116432000D01*
X98307500Y-116432000D01*
X98307500Y-116388077D01*
X98307161Y-116381616D01*
X98292681Y-116243847D01*
X98234219Y-116063920D01*
X98169025Y-115951000D01*
X109584540Y-115951000D01*
X109604326Y-116139257D01*
X109662820Y-116319284D01*
X109757466Y-116483216D01*
X109884129Y-116623889D01*
X110037269Y-116735151D01*
X110210197Y-116812144D01*
X110395352Y-116851500D01*
X110395354Y-116851500D01*
X110584648Y-116851500D01*
X110708084Y-116825262D01*
X110769803Y-116812144D01*
X110942730Y-116735151D01*
X111011587Y-116685124D01*
X111095870Y-116623889D01*
X111095871Y-116623888D01*
X111159850Y-116552831D01*
X111219336Y-116516183D01*
X111289193Y-116517513D01*
X111344150Y-116552832D01*
X111408129Y-116623889D01*
X111561269Y-116735151D01*
X111734197Y-116812144D01*
X111919352Y-116851500D01*
X111919354Y-116851500D01*
X112108648Y-116851500D01*
X112232084Y-116825262D01*
X112293803Y-116812144D01*
X112466730Y-116735151D01*
X112535587Y-116685124D01*
X112619870Y-116623889D01*
X112746533Y-116483216D01*
X112841179Y-116319284D01*
X112865690Y-116243847D01*
X112899674Y-116139256D01*
X112919460Y-115951000D01*
X112899674Y-115762744D01*
X112852350Y-115617097D01*
X112841179Y-115582715D01*
X112746533Y-115418783D01*
X112619870Y-115278110D01*
X112466730Y-115166848D01*
X112293802Y-115089855D01*
X112108648Y-115050500D01*
X112108646Y-115050500D01*
X111919354Y-115050500D01*
X111919352Y-115050500D01*
X111734197Y-115089855D01*
X111561269Y-115166848D01*
X111408129Y-115278110D01*
X111344150Y-115349167D01*
X111284663Y-115385816D01*
X111214806Y-115384485D01*
X111159850Y-115349167D01*
X111095870Y-115278110D01*
X110942730Y-115166848D01*
X110769802Y-115089855D01*
X110584648Y-115050500D01*
X110584646Y-115050500D01*
X110395354Y-115050500D01*
X110395352Y-115050500D01*
X110210197Y-115089855D01*
X110037269Y-115166848D01*
X109884129Y-115278110D01*
X109757466Y-115418783D01*
X109662820Y-115582715D01*
X109604326Y-115762742D01*
X109584540Y-115951000D01*
X98169025Y-115951000D01*
X98139626Y-115900079D01*
X98013032Y-115759484D01*
X97859982Y-115648285D01*
X97687146Y-115571335D01*
X97657500Y-115565033D01*
X97157500Y-115565033D01*
X97127853Y-115571335D01*
X96955018Y-115648285D01*
X96855810Y-115720364D01*
X96790004Y-115743844D01*
X96721950Y-115728018D01*
X96710040Y-115720364D01*
X96610230Y-115647848D01*
X96437302Y-115570855D01*
X96252148Y-115531500D01*
X96252146Y-115531500D01*
X96062854Y-115531500D01*
X96062852Y-115531500D01*
X95877697Y-115570855D01*
X95704769Y-115647848D01*
X95605385Y-115720055D01*
X95539579Y-115743535D01*
X95471525Y-115727709D01*
X95459615Y-115720055D01*
X95360230Y-115647848D01*
X95187302Y-115570855D01*
X95002148Y-115531500D01*
X95002146Y-115531500D01*
X94812854Y-115531500D01*
X94812852Y-115531500D01*
X94627697Y-115570855D01*
X94454768Y-115647849D01*
X94426200Y-115668604D01*
X94360393Y-115692082D01*
X94292340Y-115676255D01*
X94289168Y-115674401D01*
X94172508Y-115603878D01*
X94147106Y-115588522D01*
X94147105Y-115588521D01*
X94134221Y-115580733D01*
X94134846Y-115579697D01*
X94090814Y-115550363D01*
X94062840Y-115486338D01*
X94073921Y-115417353D01*
X94120540Y-115365310D01*
X94135418Y-115357435D01*
X94178731Y-115338151D01*
X94331870Y-115226889D01*
X94385931Y-115166849D01*
X94458533Y-115086216D01*
X94553179Y-114922284D01*
X94611674Y-114742256D01*
X94631460Y-114554000D01*
X94611674Y-114365744D01*
X94553179Y-114185716D01*
X94553179Y-114185715D01*
X94458533Y-114021783D01*
X94331870Y-113881110D01*
X94178730Y-113769848D01*
X94005802Y-113692855D01*
X93820648Y-113653500D01*
X93820646Y-113653500D01*
X93631354Y-113653500D01*
X93631352Y-113653500D01*
X93446197Y-113692855D01*
X93273269Y-113769848D01*
X93120129Y-113881110D01*
X92993466Y-114021783D01*
X92898820Y-114185715D01*
X92840326Y-114365742D01*
X92820540Y-114553999D01*
X92840326Y-114742257D01*
X92898820Y-114922284D01*
X92993466Y-115086216D01*
X93120129Y-115226889D01*
X93282947Y-115345183D01*
X93325613Y-115400513D01*
X93331592Y-115470126D01*
X93298986Y-115531921D01*
X93246952Y-115563886D01*
X93167896Y-115588520D01*
X93022313Y-115676528D01*
X92902028Y-115796813D01*
X92816514Y-115938272D01*
X92814022Y-115942394D01*
X92808504Y-115960102D01*
X92763413Y-116104806D01*
X92757255Y-116172575D01*
X92757000Y-116175384D01*
X92757000Y-117188616D01*
X86266231Y-117188616D01*
X86086624Y-116854850D01*
X86083772Y-116850077D01*
X85849332Y-116494914D01*
X85846059Y-116490408D01*
X85580720Y-116157685D01*
X85577056Y-116153491D01*
X85528375Y-116102576D01*
X84536365Y-117094585D01*
X84544914Y-117064541D01*
X84534565Y-116952860D01*
X84484571Y-116852459D01*
X84401685Y-116776897D01*
X84297099Y-116736381D01*
X84213217Y-116736381D01*
X84181541Y-116742302D01*
X85173721Y-115750123D01*
X84958459Y-115562054D01*
X84954117Y-115558591D01*
X84609824Y-115308448D01*
X84605187Y-115305387D01*
X84239836Y-115087099D01*
X84234965Y-115084478D01*
X83851534Y-114899828D01*
X83846407Y-114897636D01*
X83447987Y-114748107D01*
X83442689Y-114746386D01*
X83032466Y-114633171D01*
X83027031Y-114631930D01*
X82608309Y-114555944D01*
X82602799Y-114555197D01*
X82178931Y-114517048D01*
X82173391Y-114516800D01*
X81747809Y-114516800D01*
X81742268Y-114517048D01*
X81318400Y-114555197D01*
X81312890Y-114555944D01*
X80894168Y-114631930D01*
X80888733Y-114633171D01*
X80478510Y-114746386D01*
X80473212Y-114748107D01*
X80074792Y-114897636D01*
X80069665Y-114899828D01*
X79686234Y-115084478D01*
X79681363Y-115087099D01*
X79316012Y-115305387D01*
X79311375Y-115308448D01*
X78967082Y-115558591D01*
X78962740Y-115562054D01*
X78747477Y-115750122D01*
X78747477Y-115750123D01*
X79733735Y-116736381D01*
X79652379Y-116736381D01*
X79569931Y-116751793D01*
X79474571Y-116810838D01*
X79406980Y-116900343D01*
X79376286Y-117008221D01*
X79384233Y-117093986D01*
X78392824Y-116102577D01*
X78392823Y-116102577D01*
X78344143Y-116153492D01*
X78340474Y-116157691D01*
X78075140Y-116490408D01*
X78071867Y-116494914D01*
X77837427Y-116850077D01*
X77834575Y-116854850D01*
X77632910Y-117229606D01*
X77630493Y-117234627D01*
X77463244Y-117625923D01*
X77461278Y-117631162D01*
X77329773Y-118035894D01*
X77328297Y-118041242D01*
X77233598Y-118456145D01*
X77232604Y-118461622D01*
X77175477Y-118883347D01*
X77174980Y-118888875D01*
X77155887Y-119314016D01*
X77155887Y-119319583D01*
X75073128Y-119319583D01*
X75091837Y-113029999D01*
X115807540Y-113029999D01*
X115827326Y-113218257D01*
X115885820Y-113398284D01*
X115980466Y-113562216D01*
X116107129Y-113702889D01*
X116260269Y-113814151D01*
X116433197Y-113891144D01*
X116618352Y-113930500D01*
X116618354Y-113930500D01*
X116807648Y-113930500D01*
X116931084Y-113904262D01*
X116992803Y-113891144D01*
X117165730Y-113814151D01*
X117318871Y-113702888D01*
X117445533Y-113562216D01*
X117540179Y-113398284D01*
X117598674Y-113218256D01*
X117605679Y-113151599D01*
X117632263Y-113086986D01*
X117689561Y-113047001D01*
X117759380Y-113044341D01*
X117819553Y-113079850D01*
X117850977Y-113142255D01*
X117852318Y-113151586D01*
X117858193Y-113207476D01*
X117859326Y-113218257D01*
X117917820Y-113398284D01*
X118012466Y-113562216D01*
X118139129Y-113702889D01*
X118292269Y-113814151D01*
X118465197Y-113891144D01*
X118650352Y-113930500D01*
X118650354Y-113930500D01*
X118839648Y-113930500D01*
X118963083Y-113904262D01*
X119024803Y-113891144D01*
X119197730Y-113814151D01*
X119350871Y-113702888D01*
X119477533Y-113562216D01*
X119572179Y-113398284D01*
X119630674Y-113218256D01*
X119650460Y-113030000D01*
X119630674Y-112841744D01*
X119572179Y-112661716D01*
X119572179Y-112661715D01*
X119477533Y-112497783D01*
X119350870Y-112357110D01*
X119197730Y-112245848D01*
X119024802Y-112168855D01*
X118839648Y-112129500D01*
X118839646Y-112129500D01*
X118650354Y-112129500D01*
X118650352Y-112129500D01*
X118465197Y-112168855D01*
X118292269Y-112245848D01*
X118139129Y-112357110D01*
X118012466Y-112497783D01*
X117917820Y-112661715D01*
X117859326Y-112841742D01*
X117859325Y-112841744D01*
X117859326Y-112841744D01*
X117852320Y-112908400D01*
X117825736Y-112973013D01*
X117768439Y-113012998D01*
X117698620Y-113015658D01*
X117638446Y-112980149D01*
X117607023Y-112917744D01*
X117605681Y-112908413D01*
X117598674Y-112841744D01*
X117540179Y-112661716D01*
X117540179Y-112661715D01*
X117445533Y-112497783D01*
X117318870Y-112357110D01*
X117165730Y-112245848D01*
X116992802Y-112168855D01*
X116807648Y-112129500D01*
X116807646Y-112129500D01*
X116618354Y-112129500D01*
X116618352Y-112129500D01*
X116433197Y-112168855D01*
X116260269Y-112245848D01*
X116107129Y-112357110D01*
X115980466Y-112497783D01*
X115885820Y-112661715D01*
X115827326Y-112841742D01*
X115807540Y-113029999D01*
X75091837Y-113029999D01*
X75097504Y-111125000D01*
X102472540Y-111125000D01*
X102492326Y-111313257D01*
X102550820Y-111493284D01*
X102645466Y-111657216D01*
X102772129Y-111797889D01*
X102925269Y-111909151D01*
X103098197Y-111986144D01*
X103283352Y-112025500D01*
X103283354Y-112025500D01*
X103472648Y-112025500D01*
X103596083Y-111999262D01*
X103657803Y-111986144D01*
X103830730Y-111909151D01*
X103983871Y-111797888D01*
X104110533Y-111657216D01*
X104111350Y-111656309D01*
X104170837Y-111619660D01*
X104240694Y-111620991D01*
X104295650Y-111656309D01*
X104423129Y-111797889D01*
X104576269Y-111909151D01*
X104749197Y-111986144D01*
X104934352Y-112025500D01*
X104934354Y-112025500D01*
X105123648Y-112025500D01*
X105247084Y-111999262D01*
X105308803Y-111986144D01*
X105481730Y-111909151D01*
X105634871Y-111797888D01*
X105761533Y-111657216D01*
X105856179Y-111493284D01*
X105914674Y-111313256D01*
X105934460Y-111125000D01*
X105914674Y-110936744D01*
X105856179Y-110756716D01*
X105856179Y-110756715D01*
X105761533Y-110592783D01*
X105634870Y-110452110D01*
X105481730Y-110340848D01*
X105308802Y-110263855D01*
X105123648Y-110224500D01*
X105123646Y-110224500D01*
X104969191Y-110224500D01*
X104902152Y-110204815D01*
X104856397Y-110152011D01*
X104846453Y-110082853D01*
X104851260Y-110062182D01*
X104871910Y-109998624D01*
X104898674Y-109916256D01*
X104918460Y-109728000D01*
X104898674Y-109539744D01*
X104840179Y-109359716D01*
X104840179Y-109359715D01*
X104745533Y-109195783D01*
X104661250Y-109102178D01*
X104631020Y-109039187D01*
X104639645Y-108969852D01*
X104684386Y-108916186D01*
X104751039Y-108895228D01*
X104803836Y-108905927D01*
X104876197Y-108938144D01*
X105061352Y-108977500D01*
X105061354Y-108977500D01*
X105250648Y-108977500D01*
X105374084Y-108951262D01*
X105435803Y-108938144D01*
X105608730Y-108861151D01*
X105664876Y-108820359D01*
X105761870Y-108749889D01*
X105888533Y-108609216D01*
X105983179Y-108445284D01*
X105983178Y-108445284D01*
X106041674Y-108265256D01*
X106061460Y-108077000D01*
X106041674Y-107888744D01*
X105993834Y-107741508D01*
X105983179Y-107708715D01*
X105888533Y-107544783D01*
X105761870Y-107404110D01*
X105608730Y-107292848D01*
X105435802Y-107215855D01*
X105250648Y-107176500D01*
X105250646Y-107176500D01*
X105061354Y-107176500D01*
X105061352Y-107176500D01*
X104876197Y-107215855D01*
X104703269Y-107292848D01*
X104550129Y-107404110D01*
X104423466Y-107544784D01*
X104337725Y-107693292D01*
X104287158Y-107741508D01*
X104218551Y-107754731D01*
X104153686Y-107728762D01*
X104122951Y-107693292D01*
X104110533Y-107671783D01*
X103983870Y-107531110D01*
X103830730Y-107419848D01*
X103657802Y-107342855D01*
X103472648Y-107303500D01*
X103472646Y-107303500D01*
X103283354Y-107303500D01*
X103283352Y-107303500D01*
X103098197Y-107342855D01*
X102925269Y-107419848D01*
X102772129Y-107531110D01*
X102645466Y-107671783D01*
X102550820Y-107835715D01*
X102492326Y-108015742D01*
X102472540Y-108203999D01*
X102492326Y-108392257D01*
X102550820Y-108572284D01*
X102645466Y-108736216D01*
X102772129Y-108876889D01*
X102925269Y-108988151D01*
X103098197Y-109065144D01*
X103160781Y-109078447D01*
X103222263Y-109111639D01*
X103256040Y-109172802D01*
X103251388Y-109242516D01*
X103242388Y-109261736D01*
X103185821Y-109359713D01*
X103127326Y-109539742D01*
X103107540Y-109728000D01*
X103127326Y-109916257D01*
X103188533Y-110104633D01*
X103190528Y-110174474D01*
X103154447Y-110234307D01*
X103109600Y-110257429D01*
X103110102Y-110258556D01*
X103098198Y-110263855D01*
X103098197Y-110263856D01*
X103058873Y-110281364D01*
X102925267Y-110340849D01*
X102772129Y-110452110D01*
X102645466Y-110592783D01*
X102550820Y-110756715D01*
X102492326Y-110936742D01*
X102472540Y-111125000D01*
X75097504Y-111125000D01*
X75113370Y-105791000D01*
X92693540Y-105791000D01*
X92713326Y-105979257D01*
X92771820Y-106159284D01*
X92866466Y-106323216D01*
X92993129Y-106463889D01*
X93146269Y-106575151D01*
X93319197Y-106652144D01*
X93504352Y-106691500D01*
X93504354Y-106691500D01*
X93693648Y-106691500D01*
X93817084Y-106665262D01*
X93878803Y-106652144D01*
X94051730Y-106575151D01*
X94204871Y-106463888D01*
X94331533Y-106323216D01*
X94426179Y-106159284D01*
X94484674Y-105979256D01*
X94504460Y-105791000D01*
X94484674Y-105602744D01*
X94427180Y-105425796D01*
X94426179Y-105422715D01*
X94331533Y-105258783D01*
X94204870Y-105118110D01*
X94051730Y-105006848D01*
X93878802Y-104929855D01*
X93693648Y-104890500D01*
X93693646Y-104890500D01*
X93504354Y-104890500D01*
X93504352Y-104890500D01*
X93319197Y-104929855D01*
X93146269Y-105006848D01*
X92993129Y-105118110D01*
X92866466Y-105258783D01*
X92771820Y-105422715D01*
X92713326Y-105602742D01*
X92693540Y-105791000D01*
X75113370Y-105791000D01*
X75121681Y-102996999D01*
X101583540Y-102996999D01*
X101603326Y-103185257D01*
X101661820Y-103365284D01*
X101756466Y-103529216D01*
X101883129Y-103669889D01*
X102036269Y-103781151D01*
X102209197Y-103858144D01*
X102394352Y-103897500D01*
X102394354Y-103897500D01*
X102583648Y-103897500D01*
X102707083Y-103871262D01*
X102768803Y-103858144D01*
X102941730Y-103781151D01*
X103094871Y-103669888D01*
X103221533Y-103529216D01*
X103316179Y-103365284D01*
X103374674Y-103185256D01*
X103394460Y-102997000D01*
X103374674Y-102808744D01*
X103316179Y-102628716D01*
X103316179Y-102628715D01*
X103221533Y-102464783D01*
X103094870Y-102324110D01*
X102941730Y-102212848D01*
X102768802Y-102135855D01*
X102583648Y-102096500D01*
X102583646Y-102096500D01*
X102394354Y-102096500D01*
X102394352Y-102096500D01*
X102209197Y-102135855D01*
X102036269Y-102212848D01*
X101883129Y-102324110D01*
X101756466Y-102464783D01*
X101661820Y-102628715D01*
X101603326Y-102808742D01*
X101583540Y-102996999D01*
X75121681Y-102996999D01*
X75129237Y-100457000D01*
X80120540Y-100457000D01*
X80140326Y-100645257D01*
X80198820Y-100825284D01*
X80293466Y-100989216D01*
X80420129Y-101129889D01*
X80573269Y-101241151D01*
X80746197Y-101318144D01*
X80931352Y-101357500D01*
X80931354Y-101357500D01*
X81120648Y-101357500D01*
X81244083Y-101331262D01*
X81305803Y-101318144D01*
X81478730Y-101241151D01*
X81631871Y-101129888D01*
X81758533Y-100989216D01*
X81807612Y-100904207D01*
X81858179Y-100855992D01*
X81926786Y-100842768D01*
X81991651Y-100868736D01*
X82022387Y-100904207D01*
X82071466Y-100989216D01*
X82198129Y-101129889D01*
X82351269Y-101241151D01*
X82524197Y-101318144D01*
X82709352Y-101357500D01*
X82709354Y-101357500D01*
X82898648Y-101357500D01*
X83022084Y-101331262D01*
X83083803Y-101318144D01*
X83256730Y-101241151D01*
X83409871Y-101129888D01*
X83536533Y-100989216D01*
X83631179Y-100825284D01*
X83689674Y-100645256D01*
X83709460Y-100457000D01*
X83691067Y-100281999D01*
X120815232Y-100281999D01*
X120834273Y-100536080D01*
X120890971Y-100784491D01*
X120984057Y-101021668D01*
X121111456Y-101242331D01*
X121153452Y-101294993D01*
X121153453Y-101294993D01*
X121957226Y-100491219D01*
X121995901Y-100584588D01*
X122092075Y-100709925D01*
X122217412Y-100806099D01*
X122310779Y-100844772D01*
X121506813Y-101648737D01*
X121667621Y-101758374D01*
X121849123Y-101845780D01*
X121900983Y-101892602D01*
X121919296Y-101960029D01*
X121898248Y-102026653D01*
X121844522Y-102071321D01*
X121795322Y-102081500D01*
X121275439Y-102081500D01*
X121275420Y-102081500D01*
X121272128Y-102081501D01*
X121268848Y-102081853D01*
X121268840Y-102081854D01*
X121212515Y-102087909D01*
X121077669Y-102138204D01*
X120962454Y-102224454D01*
X120876204Y-102339668D01*
X120825910Y-102474515D01*
X120825909Y-102474517D01*
X120819500Y-102534127D01*
X120819500Y-102537448D01*
X120819500Y-102537449D01*
X120819500Y-105026560D01*
X120819500Y-105026578D01*
X120819501Y-105029872D01*
X120825909Y-105089483D01*
X120876204Y-105224331D01*
X120962454Y-105339546D01*
X121077669Y-105425796D01*
X121212517Y-105476091D01*
X121272127Y-105482500D01*
X123767872Y-105482499D01*
X123827483Y-105476091D01*
X123962331Y-105425796D01*
X124077546Y-105339546D01*
X124163796Y-105224331D01*
X124214091Y-105089483D01*
X124220500Y-105029873D01*
X124220499Y-102534128D01*
X124214091Y-102474517D01*
X124163796Y-102339669D01*
X124077546Y-102224454D01*
X123962331Y-102138204D01*
X123827483Y-102087909D01*
X123767873Y-102081500D01*
X123764551Y-102081500D01*
X123244679Y-102081500D01*
X123177640Y-102061815D01*
X123131885Y-102009011D01*
X123121941Y-101939853D01*
X123150966Y-101876297D01*
X123190878Y-101845780D01*
X123372383Y-101758372D01*
X123533185Y-101648737D01*
X122729220Y-100844772D01*
X122822588Y-100806099D01*
X122947925Y-100709925D01*
X123044099Y-100584589D01*
X123082773Y-100491220D01*
X123886545Y-101294993D01*
X123886546Y-101294992D01*
X123928545Y-101242328D01*
X124055942Y-101021669D01*
X124149028Y-100784491D01*
X124205726Y-100536080D01*
X124224767Y-100282000D01*
X124205726Y-100027919D01*
X124149028Y-99779508D01*
X124055942Y-99542330D01*
X123928545Y-99321671D01*
X123886546Y-99269005D01*
X123082772Y-100072779D01*
X123044099Y-99979412D01*
X122947925Y-99854075D01*
X122822588Y-99757901D01*
X122729220Y-99719227D01*
X123533185Y-98915261D01*
X123372379Y-98805625D01*
X123142823Y-98695078D01*
X122899345Y-98619974D01*
X122647397Y-98582000D01*
X122392603Y-98582000D01*
X122140654Y-98619974D01*
X121897179Y-98695077D01*
X121667615Y-98805628D01*
X121506813Y-98915261D01*
X122310779Y-99719227D01*
X122217412Y-99757901D01*
X122092075Y-99854075D01*
X121995901Y-99979411D01*
X121957227Y-100072779D01*
X121153453Y-99269006D01*
X121111453Y-99321673D01*
X120984057Y-99542331D01*
X120890971Y-99779508D01*
X120834273Y-100027919D01*
X120815232Y-100281999D01*
X83691067Y-100281999D01*
X83689674Y-100268744D01*
X83659332Y-100175363D01*
X83631179Y-100088715D01*
X83536533Y-99924783D01*
X83409870Y-99784110D01*
X83256730Y-99672848D01*
X83083802Y-99595855D01*
X82898648Y-99556500D01*
X82898646Y-99556500D01*
X82709354Y-99556500D01*
X82709352Y-99556500D01*
X82524197Y-99595855D01*
X82351269Y-99672848D01*
X82198129Y-99784110D01*
X82071466Y-99924784D01*
X82022387Y-100009792D01*
X81971820Y-100058008D01*
X81903213Y-100071231D01*
X81838348Y-100045263D01*
X81807613Y-100009792D01*
X81758533Y-99924784D01*
X81631870Y-99784110D01*
X81478730Y-99672848D01*
X81305802Y-99595855D01*
X81120648Y-99556500D01*
X81120646Y-99556500D01*
X80931354Y-99556500D01*
X80931352Y-99556500D01*
X80746197Y-99595855D01*
X80573269Y-99672848D01*
X80420129Y-99784110D01*
X80293466Y-99924783D01*
X80198820Y-100088715D01*
X80140326Y-100268742D01*
X80120540Y-100457000D01*
X75129237Y-100457000D01*
X75146615Y-94615000D01*
X87105540Y-94615000D01*
X87125326Y-94803257D01*
X87183820Y-94983284D01*
X87278466Y-95147216D01*
X87405129Y-95287889D01*
X87558269Y-95399151D01*
X87731197Y-95476144D01*
X87916352Y-95515500D01*
X87916354Y-95515500D01*
X88105648Y-95515500D01*
X88229084Y-95489262D01*
X88290803Y-95476144D01*
X88463730Y-95399151D01*
X88616871Y-95287888D01*
X88743533Y-95147216D01*
X88838179Y-94983284D01*
X88896674Y-94803256D01*
X88916460Y-94615000D01*
X88896674Y-94426744D01*
X88838179Y-94246716D01*
X88838179Y-94246715D01*
X88743533Y-94082783D01*
X88616870Y-93942110D01*
X88463730Y-93830848D01*
X88290802Y-93753855D01*
X88105648Y-93714500D01*
X88105646Y-93714500D01*
X87916354Y-93714500D01*
X87916352Y-93714500D01*
X87731197Y-93753855D01*
X87558269Y-93830848D01*
X87405129Y-93942110D01*
X87278466Y-94082783D01*
X87183820Y-94246715D01*
X87125326Y-94426742D01*
X87105540Y-94615000D01*
X75146615Y-94615000D01*
X75151416Y-93001047D01*
X98820285Y-93001047D01*
X98840071Y-93189304D01*
X98898565Y-93369331D01*
X98993211Y-93533263D01*
X99119874Y-93673936D01*
X99273014Y-93785198D01*
X99445942Y-93862191D01*
X99631097Y-93901547D01*
X99631099Y-93901547D01*
X99820393Y-93901547D01*
X99943828Y-93875309D01*
X100005548Y-93862191D01*
X100178475Y-93785198D01*
X100331616Y-93673935D01*
X100407309Y-93589869D01*
X100466791Y-93553223D01*
X100536648Y-93554552D01*
X100572341Y-93572524D01*
X100639270Y-93621151D01*
X100639271Y-93621151D01*
X100639272Y-93621152D01*
X100812197Y-93698144D01*
X100997352Y-93737500D01*
X100997354Y-93737500D01*
X101186648Y-93737500D01*
X101310084Y-93711262D01*
X101371803Y-93698144D01*
X101544730Y-93621151D01*
X101697871Y-93509888D01*
X101824533Y-93369216D01*
X101919179Y-93205284D01*
X101977674Y-93025256D01*
X101997460Y-92837000D01*
X101977674Y-92648744D01*
X101947332Y-92555363D01*
X101919179Y-92468715D01*
X101824533Y-92304783D01*
X101697870Y-92164110D01*
X101544730Y-92052848D01*
X101371802Y-91975855D01*
X101186648Y-91936500D01*
X101186646Y-91936500D01*
X100997354Y-91936500D01*
X100997352Y-91936500D01*
X100812197Y-91975855D01*
X100639269Y-92052848D01*
X100486128Y-92164111D01*
X100410436Y-92248175D01*
X100350949Y-92284823D01*
X100281092Y-92283492D01*
X100245402Y-92265520D01*
X100178475Y-92216895D01*
X100005547Y-92139902D01*
X99820393Y-92100547D01*
X99820391Y-92100547D01*
X99631099Y-92100547D01*
X99631097Y-92100547D01*
X99445942Y-92139902D01*
X99273014Y-92216895D01*
X99119874Y-92328157D01*
X98993211Y-92468830D01*
X98898565Y-92632762D01*
X98840071Y-92812789D01*
X98820285Y-93001047D01*
X75151416Y-93001047D01*
X75162103Y-89408000D01*
X88756540Y-89408000D01*
X88776326Y-89596257D01*
X88834820Y-89776284D01*
X88929466Y-89940216D01*
X89056129Y-90080889D01*
X89209269Y-90192151D01*
X89382197Y-90269144D01*
X89567352Y-90308500D01*
X89567354Y-90308500D01*
X89756648Y-90308500D01*
X89880083Y-90282262D01*
X89941803Y-90269144D01*
X90053755Y-90219298D01*
X90119564Y-90189999D01*
X90188814Y-90180714D01*
X90220436Y-90189999D01*
X90398197Y-90269144D01*
X90583352Y-90308500D01*
X90583354Y-90308500D01*
X90772648Y-90308500D01*
X90826749Y-90297000D01*
X113648540Y-90297000D01*
X113668326Y-90485257D01*
X113726820Y-90665284D01*
X113821466Y-90829216D01*
X113948129Y-90969889D01*
X114101269Y-91081151D01*
X114274197Y-91158144D01*
X114459352Y-91197500D01*
X114459354Y-91197500D01*
X114648648Y-91197500D01*
X114772084Y-91171262D01*
X114833803Y-91158144D01*
X115006730Y-91081151D01*
X115159871Y-90969888D01*
X115286533Y-90829216D01*
X115381179Y-90665284D01*
X115439674Y-90485256D01*
X115459460Y-90297000D01*
X115439674Y-90108744D01*
X115381179Y-89928716D01*
X115381179Y-89928715D01*
X115286533Y-89764783D01*
X115159870Y-89624110D01*
X115006730Y-89512848D01*
X114833802Y-89435855D01*
X114648648Y-89396500D01*
X114648646Y-89396500D01*
X114459354Y-89396500D01*
X114459352Y-89396500D01*
X114274197Y-89435855D01*
X114101269Y-89512848D01*
X113948129Y-89624110D01*
X113821466Y-89764783D01*
X113726820Y-89928715D01*
X113668326Y-90108742D01*
X113648540Y-90297000D01*
X90826749Y-90297000D01*
X90896084Y-90282262D01*
X90957803Y-90269144D01*
X91130730Y-90192151D01*
X91186000Y-90151995D01*
X91283870Y-90080889D01*
X91410533Y-89940216D01*
X91505179Y-89776284D01*
X91535115Y-89684151D01*
X91563674Y-89596256D01*
X91583460Y-89408000D01*
X91563674Y-89219744D01*
X91505179Y-89039716D01*
X91505179Y-89039715D01*
X91424514Y-88899999D01*
X99678540Y-88899999D01*
X99698326Y-89088257D01*
X99756820Y-89268284D01*
X99851466Y-89432216D01*
X99978129Y-89572889D01*
X100131269Y-89684151D01*
X100304197Y-89761144D01*
X100489352Y-89800500D01*
X100489354Y-89800500D01*
X100678648Y-89800500D01*
X100802084Y-89774262D01*
X100863803Y-89761144D01*
X101036730Y-89684151D01*
X101189871Y-89572888D01*
X101316533Y-89432216D01*
X101411179Y-89268284D01*
X101469674Y-89088256D01*
X101489460Y-88900000D01*
X101469674Y-88711744D01*
X101439332Y-88618363D01*
X101411179Y-88531715D01*
X101316533Y-88367783D01*
X101189870Y-88227110D01*
X101036730Y-88115848D01*
X100863802Y-88038855D01*
X100678648Y-87999500D01*
X100678646Y-87999500D01*
X100489354Y-87999500D01*
X100489352Y-87999500D01*
X100304197Y-88038855D01*
X100131269Y-88115848D01*
X99978129Y-88227110D01*
X99851466Y-88367783D01*
X99756820Y-88531715D01*
X99698326Y-88711742D01*
X99678540Y-88899999D01*
X91424514Y-88899999D01*
X91410533Y-88875783D01*
X91283870Y-88735110D01*
X91130730Y-88623848D01*
X90957802Y-88546855D01*
X90772648Y-88507500D01*
X90772646Y-88507500D01*
X90583354Y-88507500D01*
X90583352Y-88507500D01*
X90398201Y-88546854D01*
X90220436Y-88626001D01*
X90151186Y-88635285D01*
X90119564Y-88626001D01*
X90024205Y-88583544D01*
X89941803Y-88546856D01*
X89941802Y-88546855D01*
X89941798Y-88546854D01*
X89756648Y-88507500D01*
X89756646Y-88507500D01*
X89567354Y-88507500D01*
X89567352Y-88507500D01*
X89382197Y-88546855D01*
X89209269Y-88623848D01*
X89056129Y-88735110D01*
X88929466Y-88875783D01*
X88834820Y-89039715D01*
X88776326Y-89219742D01*
X88756540Y-89408000D01*
X75162103Y-89408000D01*
X75171000Y-86417055D01*
X76489500Y-86417055D01*
X76530209Y-86582224D01*
X76601780Y-86718588D01*
X76609266Y-86732852D01*
X76722071Y-86860183D01*
X76862070Y-86956818D01*
X77021128Y-87017140D01*
X77147628Y-87032500D01*
X77151377Y-87032500D01*
X77228623Y-87032500D01*
X77232372Y-87032500D01*
X77358872Y-87017140D01*
X77517930Y-86956818D01*
X77657929Y-86860183D01*
X77770734Y-86732852D01*
X77849790Y-86582225D01*
X77890500Y-86417056D01*
X77890500Y-86246944D01*
X77849790Y-86081775D01*
X77770734Y-85931148D01*
X77727636Y-85882500D01*
X111489540Y-85882500D01*
X111509326Y-86070757D01*
X111567820Y-86250784D01*
X111662466Y-86414716D01*
X111789129Y-86555389D01*
X111942269Y-86666651D01*
X112115197Y-86743644D01*
X112300352Y-86783000D01*
X112300354Y-86783000D01*
X112489648Y-86783000D01*
X112613084Y-86756762D01*
X112674803Y-86743644D01*
X112847730Y-86666651D01*
X112963933Y-86582225D01*
X113000870Y-86555389D01*
X113127533Y-86414716D01*
X113222179Y-86250784D01*
X113223427Y-86246944D01*
X113280674Y-86070756D01*
X113300460Y-85882500D01*
X113280674Y-85694244D01*
X113222179Y-85514216D01*
X113222179Y-85514215D01*
X113127533Y-85350283D01*
X113000870Y-85209610D01*
X112847730Y-85098348D01*
X112674802Y-85021355D01*
X112489648Y-84982000D01*
X112489646Y-84982000D01*
X112300354Y-84982000D01*
X112300352Y-84982000D01*
X112115197Y-85021355D01*
X111942269Y-85098348D01*
X111789129Y-85209610D01*
X111662466Y-85350283D01*
X111567820Y-85514215D01*
X111509326Y-85694242D01*
X111489540Y-85882500D01*
X77727636Y-85882500D01*
X77657929Y-85803817D01*
X77657928Y-85803816D01*
X77657927Y-85803815D01*
X77517930Y-85707182D01*
X77358872Y-85646860D01*
X77236092Y-85631951D01*
X77236080Y-85631950D01*
X77232372Y-85631500D01*
X77147628Y-85631500D01*
X77143920Y-85631950D01*
X77143907Y-85631951D01*
X77021127Y-85646860D01*
X76862069Y-85707182D01*
X76722072Y-85803815D01*
X76609265Y-85931149D01*
X76530209Y-86081775D01*
X76489500Y-86246944D01*
X76489500Y-86417055D01*
X75171000Y-86417055D01*
X75179924Y-83417055D01*
X76489500Y-83417055D01*
X76530209Y-83582224D01*
X76530210Y-83582225D01*
X76609266Y-83732852D01*
X76722071Y-83860183D01*
X76862070Y-83956818D01*
X77021128Y-84017140D01*
X77147628Y-84032500D01*
X77151377Y-84032500D01*
X77228623Y-84032500D01*
X77232372Y-84032500D01*
X77358872Y-84017140D01*
X77517930Y-83956818D01*
X77657929Y-83860183D01*
X77770734Y-83732852D01*
X77849790Y-83582225D01*
X77890500Y-83417056D01*
X77890500Y-83246944D01*
X77849790Y-83081775D01*
X77770734Y-82931148D01*
X77657929Y-82803817D01*
X77657928Y-82803816D01*
X77657927Y-82803815D01*
X77517930Y-82707182D01*
X77358872Y-82646860D01*
X77236092Y-82631951D01*
X77236080Y-82631950D01*
X77232372Y-82631500D01*
X77147628Y-82631500D01*
X77143920Y-82631950D01*
X77143907Y-82631951D01*
X77021127Y-82646860D01*
X76862069Y-82707182D01*
X76722072Y-82803815D01*
X76609265Y-82931149D01*
X76530209Y-83081775D01*
X76489500Y-83246944D01*
X76489500Y-83417055D01*
X75179924Y-83417055D01*
X75182503Y-82549999D01*
X79485540Y-82549999D01*
X79505326Y-82738257D01*
X79563820Y-82918284D01*
X79658466Y-83082216D01*
X79785129Y-83222889D01*
X79938269Y-83334151D01*
X80111197Y-83411144D01*
X80296352Y-83450500D01*
X80296354Y-83450500D01*
X80485648Y-83450500D01*
X80609083Y-83424262D01*
X80670803Y-83411144D01*
X80843730Y-83334151D01*
X80996871Y-83222888D01*
X81123533Y-83082216D01*
X81218179Y-82918284D01*
X81276674Y-82738256D01*
X81296460Y-82550000D01*
X81276674Y-82361744D01*
X81218179Y-82181716D01*
X81218179Y-82181715D01*
X81123533Y-82017783D01*
X81030986Y-81915000D01*
X90788540Y-81915000D01*
X90808326Y-82103257D01*
X90866820Y-82283284D01*
X90961466Y-82447216D01*
X91088129Y-82587889D01*
X91241269Y-82699151D01*
X91414197Y-82776144D01*
X91599352Y-82815500D01*
X91599354Y-82815500D01*
X91788648Y-82815500D01*
X91912083Y-82789262D01*
X91973803Y-82776144D01*
X92146730Y-82699151D01*
X92299871Y-82587888D01*
X92426533Y-82447216D01*
X92521179Y-82283284D01*
X92579674Y-82103256D01*
X92599460Y-81915000D01*
X92599460Y-81914999D01*
X95741540Y-81914999D01*
X95761326Y-82103257D01*
X95819820Y-82283284D01*
X95914466Y-82447216D01*
X96041129Y-82587889D01*
X96194269Y-82699151D01*
X96367197Y-82776144D01*
X96552352Y-82815500D01*
X96552354Y-82815500D01*
X96741648Y-82815500D01*
X96865083Y-82789262D01*
X96926803Y-82776144D01*
X97099730Y-82699151D01*
X97252871Y-82587888D01*
X97379533Y-82447216D01*
X97474179Y-82283284D01*
X97532674Y-82103256D01*
X97552460Y-81915000D01*
X97532674Y-81726744D01*
X97474179Y-81546716D01*
X97474179Y-81546715D01*
X97379533Y-81382783D01*
X97252870Y-81242110D01*
X97099730Y-81130848D01*
X96926802Y-81053855D01*
X96741648Y-81014500D01*
X96741646Y-81014500D01*
X96552354Y-81014500D01*
X96552352Y-81014500D01*
X96367197Y-81053855D01*
X96194269Y-81130848D01*
X96041129Y-81242110D01*
X95914466Y-81382783D01*
X95819820Y-81546715D01*
X95761326Y-81726742D01*
X95741540Y-81914999D01*
X92599460Y-81914999D01*
X92579674Y-81726744D01*
X92521179Y-81546716D01*
X92521179Y-81546715D01*
X92426533Y-81382783D01*
X92299870Y-81242110D01*
X92146730Y-81130848D01*
X91973802Y-81053855D01*
X91788648Y-81014500D01*
X91788646Y-81014500D01*
X91599354Y-81014500D01*
X91599352Y-81014500D01*
X91414197Y-81053855D01*
X91241269Y-81130848D01*
X91088129Y-81242110D01*
X90961466Y-81382783D01*
X90866820Y-81546715D01*
X90808326Y-81726742D01*
X90788540Y-81915000D01*
X81030986Y-81915000D01*
X80996870Y-81877110D01*
X80843730Y-81765848D01*
X80670802Y-81688855D01*
X80485648Y-81649500D01*
X80485646Y-81649500D01*
X80296354Y-81649500D01*
X80296352Y-81649500D01*
X80111197Y-81688855D01*
X79938269Y-81765848D01*
X79785129Y-81877110D01*
X79658466Y-82017783D01*
X79563820Y-82181715D01*
X79505326Y-82361742D01*
X79485540Y-82549999D01*
X75182503Y-82549999D01*
X75204205Y-75254364D01*
X76734868Y-75254364D01*
X76753961Y-75679505D01*
X76754458Y-75685033D01*
X76811585Y-76106758D01*
X76812579Y-76112235D01*
X76907278Y-76527138D01*
X76908754Y-76532486D01*
X77040259Y-76937218D01*
X77042225Y-76942457D01*
X77209474Y-77333753D01*
X77211891Y-77338774D01*
X77413556Y-77713530D01*
X77416408Y-77718303D01*
X77650848Y-78073466D01*
X77654121Y-78077972D01*
X77919460Y-78410695D01*
X77923124Y-78414889D01*
X77971804Y-78465803D01*
X78963816Y-77473790D01*
X78955267Y-77503840D01*
X78965616Y-77615521D01*
X79015610Y-77715922D01*
X79098496Y-77791484D01*
X79203082Y-77832000D01*
X79286964Y-77832000D01*
X79318634Y-77826079D01*
X78326458Y-78818256D01*
X78541721Y-79006326D01*
X78546063Y-79009789D01*
X78890356Y-79259932D01*
X78894993Y-79262993D01*
X79260344Y-79481281D01*
X79265215Y-79483902D01*
X79648646Y-79668552D01*
X79653773Y-79670744D01*
X80052193Y-79820273D01*
X80057491Y-79821994D01*
X80467714Y-79935209D01*
X80473149Y-79936450D01*
X80891871Y-80012436D01*
X80897381Y-80013183D01*
X81321249Y-80051332D01*
X81326790Y-80051581D01*
X81752372Y-80051581D01*
X81757912Y-80051332D01*
X82181780Y-80013183D01*
X82187290Y-80012436D01*
X82606012Y-79936450D01*
X82611447Y-79935209D01*
X83021670Y-79821994D01*
X83026968Y-79820273D01*
X83425388Y-79670744D01*
X83430515Y-79668552D01*
X83813946Y-79483902D01*
X83818817Y-79481281D01*
X84184168Y-79262993D01*
X84188805Y-79259932D01*
X84533086Y-79009797D01*
X84537458Y-79006311D01*
X84752702Y-78818257D01*
X84752702Y-78818256D01*
X83766446Y-77832000D01*
X83847802Y-77832000D01*
X83930250Y-77816588D01*
X84025610Y-77757543D01*
X84093201Y-77668038D01*
X84123895Y-77560160D01*
X84115947Y-77474393D01*
X85107356Y-78465802D01*
X85156048Y-78414876D01*
X85159700Y-78410696D01*
X85425040Y-78077972D01*
X85428313Y-78073466D01*
X85662753Y-77718303D01*
X85665605Y-77713530D01*
X85867270Y-77338774D01*
X85869687Y-77333753D01*
X86036936Y-76942457D01*
X86038902Y-76937218D01*
X86154319Y-76582000D01*
X90795000Y-76582000D01*
X90795000Y-76625922D01*
X90795338Y-76632383D01*
X90809818Y-76770152D01*
X90868280Y-76950079D01*
X90962873Y-77113920D01*
X91089467Y-77254515D01*
X91242517Y-77365714D01*
X91415352Y-77442664D01*
X91444999Y-77448965D01*
X91445000Y-76582000D01*
X90795000Y-76582000D01*
X86154319Y-76582000D01*
X86170407Y-76532486D01*
X86171883Y-76527138D01*
X86216422Y-76332000D01*
X91440102Y-76332000D01*
X91459505Y-76429545D01*
X91514760Y-76512240D01*
X91597455Y-76567495D01*
X91670376Y-76582000D01*
X91719624Y-76582000D01*
X91792545Y-76567495D01*
X91875240Y-76512240D01*
X91930495Y-76429545D01*
X91944999Y-76356624D01*
X91944999Y-77448965D01*
X91974645Y-77442664D01*
X92147481Y-77365714D01*
X92246687Y-77293636D01*
X92312493Y-77270155D01*
X92380547Y-77285980D01*
X92392458Y-77293635D01*
X92492269Y-77366151D01*
X92665197Y-77443144D01*
X92850352Y-77482500D01*
X92850354Y-77482500D01*
X93039648Y-77482500D01*
X93197417Y-77448965D01*
X93224803Y-77443144D01*
X93397730Y-77366151D01*
X93497115Y-77293943D01*
X93562921Y-77270464D01*
X93630974Y-77286289D01*
X93642878Y-77293939D01*
X93742270Y-77366151D01*
X93742271Y-77366151D01*
X93742272Y-77366152D01*
X93915197Y-77443144D01*
X94100352Y-77482500D01*
X94100354Y-77482500D01*
X94289648Y-77482500D01*
X94447417Y-77448965D01*
X94474803Y-77443144D01*
X94647730Y-77366151D01*
X94676296Y-77345396D01*
X94742098Y-77321916D01*
X94810152Y-77337740D01*
X94813330Y-77339597D01*
X94955394Y-77425478D01*
X95117804Y-77476086D01*
X95188384Y-77482500D01*
X95191203Y-77482500D01*
X95698797Y-77482500D01*
X95701616Y-77482500D01*
X95772196Y-77476086D01*
X95934606Y-77425478D01*
X96080185Y-77337472D01*
X96200472Y-77217185D01*
X96288478Y-77071606D01*
X96339086Y-76909196D01*
X96345500Y-76838616D01*
X96345500Y-75825384D01*
X96339086Y-75754804D01*
X96288478Y-75592394D01*
X96200472Y-75446815D01*
X96200471Y-75446813D01*
X96080186Y-75326528D01*
X95992180Y-75273326D01*
X95934606Y-75238522D01*
X95772196Y-75187914D01*
X95772193Y-75187913D01*
X95704424Y-75181755D01*
X95704420Y-75181754D01*
X95701616Y-75181500D01*
X95188384Y-75181500D01*
X95185580Y-75181754D01*
X95185575Y-75181755D01*
X95117806Y-75187913D01*
X95064339Y-75204574D01*
X94955394Y-75238522D01*
X94955392Y-75238522D01*
X94955392Y-75238523D01*
X94813331Y-75324402D01*
X94745776Y-75342238D01*
X94679302Y-75320720D01*
X94676296Y-75318603D01*
X94647729Y-75297848D01*
X94474802Y-75220855D01*
X94289648Y-75181500D01*
X94289646Y-75181500D01*
X94100354Y-75181500D01*
X94100352Y-75181500D01*
X93915197Y-75220855D01*
X93742269Y-75297848D01*
X93642885Y-75370055D01*
X93577079Y-75393535D01*
X93509025Y-75377709D01*
X93497115Y-75370055D01*
X93397730Y-75297848D01*
X93224802Y-75220855D01*
X93039648Y-75181500D01*
X93039646Y-75181500D01*
X92850354Y-75181500D01*
X92850352Y-75181500D01*
X92665197Y-75220855D01*
X92492269Y-75297848D01*
X92392459Y-75370364D01*
X92326652Y-75393844D01*
X92258599Y-75378018D01*
X92246688Y-75370364D01*
X92147478Y-75298283D01*
X91974645Y-75221333D01*
X91944999Y-75215032D01*
X91945000Y-76082000D01*
X91944999Y-76307375D01*
X91930495Y-76234455D01*
X91875240Y-76151760D01*
X91792545Y-76096505D01*
X91719624Y-76082000D01*
X91670376Y-76082000D01*
X91597455Y-76096505D01*
X91514760Y-76151760D01*
X91459505Y-76234455D01*
X91440102Y-76332000D01*
X86216422Y-76332000D01*
X86266582Y-76112235D01*
X86267576Y-76106758D01*
X86270930Y-76082000D01*
X90795000Y-76082000D01*
X91444999Y-76082000D01*
X91444999Y-75215033D01*
X91415353Y-75221335D01*
X91242521Y-75298283D01*
X91089464Y-75409486D01*
X90962873Y-75550079D01*
X90868280Y-75713920D01*
X90809818Y-75893847D01*
X90795338Y-76031616D01*
X90795000Y-76038077D01*
X90795000Y-76082000D01*
X86270930Y-76082000D01*
X86324703Y-75685033D01*
X86325200Y-75679505D01*
X86344294Y-75254364D01*
X86344294Y-75248797D01*
X86325200Y-74823656D01*
X86324703Y-74818128D01*
X86267576Y-74396403D01*
X86266582Y-74390926D01*
X86171883Y-73976023D01*
X86170407Y-73970675D01*
X86110728Y-73787000D01*
X98281540Y-73787000D01*
X98301326Y-73975257D01*
X98359820Y-74155284D01*
X98454466Y-74319216D01*
X98581129Y-74459889D01*
X98734269Y-74571151D01*
X98907197Y-74648144D01*
X99092352Y-74687500D01*
X99092354Y-74687500D01*
X99281648Y-74687500D01*
X99413800Y-74659410D01*
X99466803Y-74648144D01*
X99565133Y-74604364D01*
X117534868Y-74604364D01*
X117553961Y-75029505D01*
X117554458Y-75035033D01*
X117611585Y-75456758D01*
X117612579Y-75462235D01*
X117707278Y-75877138D01*
X117708754Y-75882486D01*
X117840259Y-76287218D01*
X117842225Y-76292457D01*
X118009474Y-76683753D01*
X118011891Y-76688774D01*
X118213556Y-77063530D01*
X118216408Y-77068303D01*
X118450848Y-77423466D01*
X118454121Y-77427972D01*
X118719460Y-77760695D01*
X118723124Y-77764889D01*
X118771804Y-77815803D01*
X119763816Y-76823790D01*
X119755267Y-76853840D01*
X119765616Y-76965521D01*
X119815610Y-77065922D01*
X119898496Y-77141484D01*
X120003082Y-77182000D01*
X120086964Y-77182000D01*
X120118634Y-77176079D01*
X119126458Y-78168256D01*
X119341721Y-78356326D01*
X119346063Y-78359789D01*
X119690356Y-78609932D01*
X119694993Y-78612993D01*
X120060344Y-78831281D01*
X120065215Y-78833902D01*
X120448646Y-79018552D01*
X120453773Y-79020744D01*
X120852193Y-79170273D01*
X120857491Y-79171994D01*
X121267714Y-79285209D01*
X121273149Y-79286450D01*
X121691871Y-79362436D01*
X121697381Y-79363183D01*
X122121249Y-79401332D01*
X122126790Y-79401581D01*
X122552372Y-79401581D01*
X122557912Y-79401332D01*
X122981780Y-79363183D01*
X122987290Y-79362436D01*
X123406012Y-79286450D01*
X123411447Y-79285209D01*
X123821670Y-79171994D01*
X123826968Y-79170273D01*
X124225388Y-79020744D01*
X124230515Y-79018552D01*
X124613946Y-78833902D01*
X124618817Y-78831281D01*
X124984168Y-78612993D01*
X124988805Y-78609932D01*
X125333086Y-78359797D01*
X125337458Y-78356311D01*
X125552702Y-78168257D01*
X125552702Y-78168256D01*
X124566446Y-77182000D01*
X124647802Y-77182000D01*
X124730250Y-77166588D01*
X124825610Y-77107543D01*
X124893201Y-77018038D01*
X124923895Y-76910160D01*
X124915947Y-76824393D01*
X125907356Y-77815802D01*
X125956048Y-77764876D01*
X125959700Y-77760696D01*
X126225040Y-77427972D01*
X126228313Y-77423466D01*
X126462753Y-77068303D01*
X126465605Y-77063530D01*
X126667270Y-76688774D01*
X126669687Y-76683753D01*
X126836936Y-76292457D01*
X126838902Y-76287218D01*
X126970407Y-75882486D01*
X126971883Y-75877138D01*
X127066582Y-75462235D01*
X127067576Y-75456758D01*
X127124703Y-75035033D01*
X127125200Y-75029505D01*
X127144294Y-74604364D01*
X127144294Y-74598797D01*
X127125200Y-74173656D01*
X127124703Y-74168128D01*
X127067576Y-73746403D01*
X127066582Y-73740926D01*
X126971883Y-73326023D01*
X126970407Y-73320675D01*
X126838902Y-72915943D01*
X126836936Y-72910704D01*
X126669687Y-72519408D01*
X126667270Y-72514387D01*
X126465605Y-72139631D01*
X126462753Y-72134858D01*
X126228313Y-71779695D01*
X126225040Y-71775189D01*
X125959701Y-71442466D01*
X125956037Y-71438272D01*
X125907356Y-71387357D01*
X124915346Y-72379366D01*
X124923895Y-72349322D01*
X124913546Y-72237641D01*
X124863552Y-72137240D01*
X124780666Y-72061678D01*
X124676080Y-72021162D01*
X124592198Y-72021162D01*
X124560522Y-72027083D01*
X125552702Y-71034904D01*
X125337440Y-70846835D01*
X125333098Y-70843372D01*
X124988805Y-70593229D01*
X124984168Y-70590168D01*
X124618817Y-70371880D01*
X124613946Y-70369259D01*
X124230515Y-70184609D01*
X124225388Y-70182417D01*
X123826968Y-70032888D01*
X123821670Y-70031167D01*
X123411447Y-69917952D01*
X123406012Y-69916711D01*
X122987290Y-69840725D01*
X122981780Y-69839978D01*
X122557912Y-69801829D01*
X122552372Y-69801581D01*
X122126790Y-69801581D01*
X122121249Y-69801829D01*
X121697381Y-69839978D01*
X121691871Y-69840725D01*
X121273149Y-69916711D01*
X121267714Y-69917952D01*
X120857491Y-70031167D01*
X120852193Y-70032888D01*
X120453773Y-70182417D01*
X120448646Y-70184609D01*
X120065215Y-70369259D01*
X120060344Y-70371880D01*
X119694993Y-70590168D01*
X119690356Y-70593229D01*
X119346063Y-70843372D01*
X119341721Y-70846835D01*
X119126458Y-71034903D01*
X119126458Y-71034904D01*
X120112716Y-72021162D01*
X120031360Y-72021162D01*
X119948912Y-72036574D01*
X119853552Y-72095619D01*
X119785961Y-72185124D01*
X119755267Y-72293002D01*
X119763214Y-72378768D01*
X118771804Y-71387358D01*
X118723124Y-71438273D01*
X118719455Y-71442472D01*
X118454121Y-71775189D01*
X118450848Y-71779695D01*
X118216408Y-72134858D01*
X118213556Y-72139631D01*
X118011891Y-72514387D01*
X118009474Y-72519408D01*
X117842225Y-72910704D01*
X117840259Y-72915943D01*
X117708754Y-73320675D01*
X117707278Y-73326023D01*
X117612579Y-73740926D01*
X117611585Y-73746403D01*
X117554458Y-74168128D01*
X117553961Y-74173656D01*
X117534868Y-74598797D01*
X117534868Y-74604364D01*
X99565133Y-74604364D01*
X99639730Y-74571151D01*
X99792871Y-74459888D01*
X99919533Y-74319216D01*
X100014179Y-74155284D01*
X100072674Y-73975256D01*
X100092460Y-73787000D01*
X100072674Y-73598744D01*
X100042332Y-73505363D01*
X100014179Y-73418715D01*
X99919533Y-73254783D01*
X99792870Y-73114110D01*
X99639730Y-73002848D01*
X99466802Y-72925855D01*
X99281648Y-72886500D01*
X99281646Y-72886500D01*
X99092354Y-72886500D01*
X99092352Y-72886500D01*
X98907197Y-72925855D01*
X98734269Y-73002848D01*
X98581129Y-73114110D01*
X98454466Y-73254783D01*
X98359820Y-73418715D01*
X98301326Y-73598742D01*
X98281540Y-73787000D01*
X86110728Y-73787000D01*
X86038902Y-73565943D01*
X86036936Y-73560704D01*
X85869687Y-73169408D01*
X85867270Y-73164387D01*
X85665605Y-72789631D01*
X85662753Y-72784858D01*
X85653605Y-72771000D01*
X109711540Y-72771000D01*
X109731326Y-72959257D01*
X109789820Y-73139284D01*
X109884466Y-73303216D01*
X110011129Y-73443889D01*
X110164269Y-73555151D01*
X110337197Y-73632144D01*
X110522352Y-73671500D01*
X110522354Y-73671500D01*
X110711648Y-73671500D01*
X110835083Y-73645262D01*
X110896803Y-73632144D01*
X111069730Y-73555151D01*
X111069730Y-73555150D01*
X111222870Y-73443889D01*
X111253126Y-73410287D01*
X111349533Y-73303216D01*
X111444179Y-73139284D01*
X111502674Y-72959256D01*
X111522460Y-72771000D01*
X111502674Y-72582744D01*
X111444179Y-72402716D01*
X111444179Y-72402715D01*
X111349533Y-72238783D01*
X111222870Y-72098110D01*
X111069730Y-71986848D01*
X110896802Y-71909855D01*
X110711648Y-71870500D01*
X110711646Y-71870500D01*
X110522354Y-71870500D01*
X110522352Y-71870500D01*
X110337197Y-71909855D01*
X110164269Y-71986848D01*
X110011129Y-72098110D01*
X109884466Y-72238783D01*
X109789820Y-72402715D01*
X109731326Y-72582742D01*
X109711540Y-72771000D01*
X85653605Y-72771000D01*
X85428313Y-72429695D01*
X85425040Y-72425189D01*
X85159701Y-72092466D01*
X85156037Y-72088272D01*
X85107356Y-72037357D01*
X84115346Y-73029366D01*
X84123895Y-72999322D01*
X84113546Y-72887641D01*
X84063552Y-72787240D01*
X83980666Y-72711678D01*
X83876080Y-72671162D01*
X83792198Y-72671162D01*
X83760522Y-72677083D01*
X84752702Y-71684904D01*
X84537440Y-71496835D01*
X84533098Y-71493372D01*
X84193995Y-71247000D01*
X99932540Y-71247000D01*
X99937381Y-71293060D01*
X99952326Y-71435257D01*
X100010820Y-71615284D01*
X100105466Y-71779216D01*
X100232129Y-71919889D01*
X100385269Y-72031151D01*
X100558197Y-72108144D01*
X100743352Y-72147500D01*
X100743354Y-72147500D01*
X100932648Y-72147500D01*
X101056084Y-72121262D01*
X101117803Y-72108144D01*
X101290730Y-72031151D01*
X101351708Y-71986848D01*
X101443870Y-71919889D01*
X101513409Y-71842659D01*
X101570533Y-71779216D01*
X101665179Y-71615284D01*
X101723674Y-71435256D01*
X101743460Y-71247000D01*
X101723674Y-71058744D01*
X101665179Y-70878716D01*
X101665179Y-70878715D01*
X101570533Y-70714783D01*
X101443870Y-70574110D01*
X101290730Y-70462848D01*
X101117802Y-70385855D01*
X100932648Y-70346500D01*
X100932646Y-70346500D01*
X100743354Y-70346500D01*
X100743352Y-70346500D01*
X100558197Y-70385855D01*
X100385269Y-70462848D01*
X100232129Y-70574110D01*
X100105466Y-70714783D01*
X100010820Y-70878715D01*
X99952326Y-71058742D01*
X99933258Y-71240168D01*
X99932540Y-71247000D01*
X84193995Y-71247000D01*
X84188805Y-71243229D01*
X84184168Y-71240168D01*
X83818817Y-71021880D01*
X83813946Y-71019259D01*
X83430515Y-70834609D01*
X83425388Y-70832417D01*
X83026968Y-70682888D01*
X83021670Y-70681167D01*
X82611447Y-70567952D01*
X82606012Y-70566711D01*
X82187290Y-70490725D01*
X82181780Y-70489978D01*
X81757912Y-70451829D01*
X81752372Y-70451581D01*
X81326790Y-70451581D01*
X81321249Y-70451829D01*
X80897381Y-70489978D01*
X80891871Y-70490725D01*
X80473149Y-70566711D01*
X80467714Y-70567952D01*
X80057491Y-70681167D01*
X80052193Y-70682888D01*
X79653773Y-70832417D01*
X79648646Y-70834609D01*
X79265215Y-71019259D01*
X79260344Y-71021880D01*
X78894993Y-71240168D01*
X78890356Y-71243229D01*
X78546063Y-71493372D01*
X78541721Y-71496835D01*
X78326458Y-71684903D01*
X78326458Y-71684904D01*
X79312716Y-72671162D01*
X79231360Y-72671162D01*
X79148912Y-72686574D01*
X79053552Y-72745619D01*
X78985961Y-72835124D01*
X78955267Y-72943002D01*
X78963214Y-73028767D01*
X77971805Y-72037358D01*
X77971804Y-72037358D01*
X77923124Y-72088273D01*
X77919455Y-72092472D01*
X77654121Y-72425189D01*
X77650848Y-72429695D01*
X77416408Y-72784858D01*
X77413556Y-72789631D01*
X77211891Y-73164387D01*
X77209474Y-73169408D01*
X77042225Y-73560704D01*
X77040259Y-73565943D01*
X76908754Y-73970675D01*
X76907278Y-73976023D01*
X76812579Y-74390926D01*
X76811585Y-74396403D01*
X76754458Y-74818128D01*
X76753961Y-74823656D01*
X76734868Y-75248797D01*
X76734868Y-75254364D01*
X75204205Y-75254364D01*
X75204353Y-75204571D01*
X75204508Y-75204051D01*
X75204508Y-75155318D01*
X75204599Y-75150557D01*
X75206368Y-75104517D01*
X75212980Y-74932429D01*
X75214381Y-74898026D01*
X75224092Y-74659410D01*
X75224804Y-74650279D01*
X75252751Y-74408798D01*
X75283511Y-74157920D01*
X75284861Y-74149387D01*
X75332119Y-73906323D01*
X75382353Y-73662678D01*
X75384227Y-73654885D01*
X75450557Y-73414134D01*
X75455382Y-73397648D01*
X75519994Y-73176830D01*
X75522303Y-73169746D01*
X75606915Y-72934788D01*
X75607730Y-72932596D01*
X75695562Y-72703421D01*
X75698230Y-72697009D01*
X75800833Y-72468765D01*
X75802039Y-72466170D01*
X75907991Y-72245323D01*
X75910881Y-72239681D01*
X76030844Y-72019713D01*
X76032569Y-72016657D01*
X76155930Y-71805460D01*
X76158922Y-71800604D01*
X76295578Y-71590234D01*
X76297844Y-71586873D01*
X76437832Y-71386572D01*
X76440870Y-71382418D01*
X76593308Y-71183099D01*
X76596196Y-71179470D01*
X76751934Y-70991276D01*
X76755004Y-70987709D01*
X76922227Y-70800743D01*
X76925766Y-70796954D01*
X77096419Y-70621890D01*
X77099188Y-70619144D01*
X77280291Y-70445537D01*
X77284519Y-70441672D01*
X77468922Y-70280971D01*
X77471561Y-70278738D01*
X77665253Y-70119704D01*
X77670261Y-70115806D01*
X77867324Y-69970459D01*
X77869636Y-69968797D01*
X78074740Y-69825250D01*
X78080537Y-69821432D01*
X78289251Y-69692270D01*
X78291137Y-69691129D01*
X78506186Y-69564018D01*
X78512717Y-69560422D01*
X78732898Y-69447791D01*
X78956930Y-69337626D01*
X78964235Y-69334326D01*
X79194166Y-69239407D01*
X79424125Y-69147503D01*
X79432228Y-69144589D01*
X79672953Y-69067432D01*
X79904912Y-68994815D01*
X79913788Y-68992395D01*
X80181133Y-68930125D01*
X80381386Y-68883958D01*
X80408697Y-68880791D01*
X123267373Y-68697219D01*
X123272630Y-68697308D01*
G37*
%TD.AperFunction*%
%TD*%
M02*
